<svg width="152" height="68" viewBox="0 0 152 68" fill="none" xmlns="http://www.w3.org/2000/svg">
<g clip-path="url(#clip0_55_227)">
<path d="M43.3536 60.7858C53.6027 56.1265 69.152 53.1307 84.7454 51.8123C116.047 49.0747 148.123 51.8904 148.746 51.9181C150.024 52.044 151.05 53.2176 151.016 54.5298C150.984 55.8394 149.959 56.7939 148.706 56.6756C148.144 56.6516 116.363 52.6711 85.1471 54.1948C69.5902 54.9088 54.2184 57.5495 43.8044 61.8083C32.5567 66.4033 32.6952 65.309 43.3536 60.7858Z" fill="#ABC380"/>
<path d="M145.846 20.8434C145.829 22.0774 144.75 22.8796 143.713 23.1793C143.565 23.2208 143.509 22.9388 143.593 22.8179C144.228 22.527 144.896 22.0472 144.896 21.3408C144.896 20.8056 144.357 20.5348 144.024 20.4479C143.795 20.385 143.594 20.2213 143.577 19.8989C143.553 19.5702 143.859 19.1547 144.517 19.1925C145.217 19.234 145.86 19.812 145.846 20.8434Z" fill="#0071CE"/>
<path d="M48.5379 26.3778C48.5379 27.8134 48.6085 28.0123 49.3552 28.0866L49.7959 28.1282C49.8778 28.1823 49.8501 28.506 49.7695 28.5462C48.9888 28.5185 48.106 28.5059 47.562 28.5059C47.0142 28.5059 46.537 28.5185 45.6593 28.5462C45.5762 28.506 45.551 28.1974 45.6593 28.1282L46.1516 28.0866C46.9148 28.0211 46.9991 27.8134 46.9991 26.3778V20.4152C46.9991 19.9921 46.9991 19.977 46.5911 19.977H45.9905C45.3495 19.977 44.7526 20.0211 44.3219 20.3573C44.0789 20.5462 43.8825 20.8396 43.7641 21.1053C43.7402 21.1569 43.7238 21.2161 43.6898 21.264C43.6696 21.2992 43.6394 21.3206 43.5752 21.3131C43.5097 21.308 43.3813 21.269 43.3234 21.2375C43.2742 21.2085 43.2604 21.172 43.2919 21.0788C43.4518 20.5764 43.6722 19.6483 43.7591 19.1673C43.7754 19.0892 43.7905 19.0376 43.8472 19.025C43.9014 19.0124 44.1091 19.0288 44.1154 19.0527C44.2111 19.4078 44.5171 19.4796 45.2022 19.4796H50.9293C51.5073 19.4796 51.7667 19.3675 51.9795 19.0615C52.0022 19.03 52.0462 19.0162 52.1067 19.0237C52.152 19.0288 52.322 19.0502 52.3258 19.1094C52.3271 19.1358 52.3119 19.1597 52.3069 19.1887C52.1608 19.8838 52.1067 20.8497 52.1142 21.2249C52.1168 21.3055 51.9052 21.3131 51.8208 21.3131C51.7289 21.3131 51.6949 21.2992 51.6848 21.2539C51.6735 21.2136 51.6735 21.1695 51.6659 21.1254C51.6206 20.8119 51.5312 20.5248 51.2869 20.3132C50.991 20.0588 50.5402 19.9858 49.7128 19.977H48.9333C48.5241 19.977 48.5392 19.9921 48.5392 20.4429V26.3778H48.5379Z" fill="#0071CE"/>
<path d="M144.875 36.2981C143.657 36.2981 142.762 35.9178 142.488 35.7579C142.31 35.4368 142.111 34.3362 142.097 33.7116C142.095 33.5869 142.474 33.568 142.533 33.6537C142.755 34.3992 143.499 35.7264 145.022 35.768C146.108 35.7969 146.798 35.1673 146.887 34.2065C146.954 33.4837 146.634 32.8528 145.642 32.135C145.106 31.7497 144.876 31.5885 144.152 31.0911C143.393 30.571 142.624 29.8268 142.692 28.6204C142.767 27.3334 143.883 26.1749 145.665 26.1749C146.517 26.1749 146.787 26.2832 147.307 26.3802C147.494 26.4129 147.697 26.4658 147.813 26.4658C147.945 26.8184 148.074 27.6357 148.074 28.2502C148.016 28.3371 147.708 28.3811 147.635 28.2917C147.448 27.5903 146.955 26.7214 145.699 26.7214C144.582 26.7214 144.009 27.4833 143.991 28.2061C143.972 29.0624 144.555 29.5573 145.252 30.0623C145.685 30.3733 145.821 30.4552 146.323 30.7851C147.581 31.6187 148.247 32.3251 148.231 33.5605C148.213 35.0225 146.93 36.2981 144.875 36.2981Z" fill="#0071CE"/>
<path d="M58.5452 23.955C58.5452 21.1821 58.2946 20.1848 56.8175 20.0601L56.1929 20.0085C56.0456 19.9078 56.0934 19.4582 56.2433 19.3839C57.6939 19.4355 58.5452 19.4582 59.5929 19.4582C60.594 19.4582 61.444 19.4355 62.4426 19.3839C62.5937 19.4582 62.6441 19.9078 62.493 20.0085L62.119 20.0601C60.6431 20.2604 60.594 21.3043 60.594 23.955V35.7253C60.594 37.6998 60.4933 39.425 60.0198 40.5785C59.1937 42.5782 57.4181 44.175 55.0948 44.175C54.7951 44.175 54.0194 44.151 54.0194 43.6511C54.0194 43.228 54.3947 42.5001 54.921 42.5001C55.2195 42.5001 55.5192 42.5518 55.8441 42.6525C56.1916 42.752 56.543 42.825 56.893 42.825C57.4169 42.825 57.7179 42.5266 57.8929 42.1752C58.4671 41.0004 58.5452 37.2503 58.5452 35.9016V23.955V23.955Z" fill="#0071CE"/>
<path d="M72.4928 36.3599C77.317 36.3599 81.1666 32.6842 81.1666 27.6383C81.1666 23.2384 78.2653 19.0627 72.4928 19.0627C67.3462 19.0627 63.5936 22.8896 63.5936 27.8876C63.5924 32.3857 66.9433 36.3599 72.4928 36.3599ZM72.8177 35.5867C67.8953 35.5867 66.0945 30.7877 66.0945 27.088C66.0945 21.6153 69.4681 19.8372 72.0672 19.8372C76.8436 19.8372 78.6632 24.2874 78.6632 28.4115C78.6632 33.3352 75.8135 35.5867 72.8177 35.5867Z" fill="#0071CE"/>
<path d="M87.2161 36.3599C85.1182 36.3599 83.7922 35.7089 83.3162 35.4381C83.0177 34.8878 82.6903 33.1123 82.6425 31.9361C82.7684 31.7611 83.1424 31.712 83.2431 31.8631C83.6209 33.1349 84.6434 35.5867 87.5435 35.5867C89.6439 35.5867 90.6665 34.2103 90.6665 32.7118C90.6665 31.61 90.4423 30.3872 88.6164 29.2123L86.2452 27.6634C84.991 26.8374 83.5403 25.4144 83.5403 23.3631C83.5403 20.9869 85.3965 19.064 88.6416 19.064C89.4135 19.064 90.3189 19.1886 90.9674 19.3876C91.2936 19.4644 91.6436 19.5374 91.8439 19.5374C92.068 20.1394 92.2896 21.5384 92.2896 22.5861C92.1889 22.7385 91.7922 22.8115 91.6663 22.6642C91.3427 21.4641 90.6665 19.8397 88.2663 19.8397C85.8233 19.8397 85.2932 21.4641 85.2932 22.6126C85.2932 24.0632 86.492 25.087 87.4188 25.6902L89.4135 26.9381C90.9888 27.9128 92.5415 29.3622 92.5415 31.7371C92.5428 34.4861 90.4675 36.3599 87.2161 36.3599Z" fill="#0071CE"/>
<path d="M37.2801 36.3599C35.1796 36.3599 33.8549 35.7089 33.3802 35.4381C33.0792 34.8878 32.7556 33.1123 32.7052 31.9361C32.8299 31.7611 33.2039 31.712 33.3046 31.8631C33.6811 33.1349 34.7049 35.5867 37.605 35.5867C39.7042 35.5867 40.7292 34.2103 40.7292 32.7118C40.7292 31.61 40.5013 30.3872 38.6791 29.2123L36.3042 27.6634C35.0537 26.8374 33.6043 25.4144 33.6043 23.3631C33.6043 20.9869 35.4529 19.064 38.7018 19.064C39.48 19.064 40.3779 19.1886 41.0276 19.3876C41.3538 19.4644 41.7013 19.5374 41.9016 19.5374C42.127 20.1394 42.3511 21.5384 42.3511 22.5861C42.2542 22.7385 41.8537 22.8115 41.7278 22.6642C41.4029 21.4641 40.7279 19.8397 38.3265 19.8397C35.8798 19.8397 35.3547 21.4641 35.3547 22.6126C35.3547 24.0632 36.5535 25.087 37.4791 25.6902L39.4813 26.9381C41.0528 27.9128 42.6042 29.3622 42.6042 31.7371C42.6042 34.4861 40.529 36.3599 37.2801 36.3599Z" fill="#0071CE"/>
<path d="M96.8909 23.2133C96.8909 20.6129 96.838 20.2389 95.3634 20.0639L94.9655 20.0122C94.8144 19.9115 94.8648 19.462 95.0146 19.3889C96.09 19.4368 96.9375 19.462 97.9676 19.462H102.665C104.265 19.462 105.74 19.462 106.041 19.3889C106.186 19.8133 106.34 21.6115 106.441 22.7134C106.34 22.8632 105.94 22.9123 105.812 22.7612C105.44 21.5888 105.213 20.7137 103.915 20.3875C103.387 20.2641 102.592 20.2389 101.49 20.2389H99.6903C98.941 20.2389 98.941 20.2868 98.941 21.2375V26.238C98.941 26.9382 99.0153 26.9382 99.7633 26.9382H101.216C102.263 26.9382 103.035 26.8865 103.34 26.7871C103.638 26.6863 103.812 26.5377 103.94 25.9119L104.138 24.8868C104.264 24.737 104.688 24.737 104.789 24.912C104.789 25.5102 104.688 26.4861 104.688 27.4368C104.688 28.336 104.789 29.288 104.789 29.8357C104.688 30.0108 104.264 30.0108 104.138 29.8634L103.914 28.8875C103.812 28.438 103.638 28.0627 103.136 27.9368C102.792 27.8373 102.187 27.8134 101.218 27.8134H99.7646C99.0153 27.8134 98.9423 27.8373 98.9423 28.4845V32.0117C98.9423 33.3377 99.0166 34.1877 99.4183 34.6096C99.7129 34.9093 100.241 35.1876 102.439 35.1876C104.365 35.1876 105.09 35.0856 105.638 34.8085C106.09 34.5617 106.762 33.684 107.412 32.3857C107.588 32.2598 107.941 32.3366 108.04 32.5608C107.864 33.436 107.234 35.3601 106.912 36.0338C104.663 35.986 102.438 35.9608 100.215 35.9608H97.9663C96.8909 35.9608 96.0409 35.986 94.5651 36.0338C94.4152 35.9608 94.3661 35.5603 94.5172 35.4117L95.3408 35.3374C96.765 35.209 96.8897 34.835 96.8897 32.212V23.2133H96.8909Z" fill="#0071CE"/>
<path d="M127.515 27.8877C126.319 27.8877 126.268 27.9368 126.268 28.6885V32.212C126.268 34.835 126.392 35.1876 127.792 35.3349L128.515 35.4105C128.665 35.51 128.617 35.962 128.466 36.0363C127.117 35.9872 126.268 35.9608 125.291 35.9608C124.217 35.9608 123.367 36.0111 122.391 36.0363C122.24 35.9608 122.191 35.5616 122.343 35.4105L122.767 35.3349C124.165 35.0868 124.217 34.835 124.217 32.212V23.2145C124.217 20.589 124.039 20.1621 122.742 20.0614L122.09 20.0135C121.941 19.9128 121.993 19.4632 122.14 19.3889C123.366 19.4128 124.216 19.4632 125.29 19.4632C126.267 19.4632 127.116 19.4368 128.189 19.3889C128.341 19.4632 128.389 19.9128 128.241 20.0135L127.764 20.0614C126.319 20.2125 126.268 20.589 126.268 23.2145V26.0869C126.268 26.8614 126.319 26.8865 127.515 26.8865H134.665C135.866 26.8865 135.915 26.8614 135.915 26.0869V23.2145C135.915 20.589 135.866 20.2125 134.388 20.0614L133.916 20.0135C133.763 19.9128 133.815 19.4632 133.962 19.3889C135.116 19.4368 135.965 19.4632 136.991 19.4632C137.964 19.4632 138.81 19.4368 139.935 19.3889C140.089 19.4632 140.136 19.9128 139.989 20.0135L139.464 20.0614C138.013 20.2125 137.965 20.589 137.965 23.2145V32.212C137.965 34.835 138.013 35.1611 139.464 35.3349L140.065 35.4105C140.213 35.51 140.165 35.962 140.014 36.0363C138.812 35.9872 137.965 35.9608 136.992 35.9608C135.966 35.9608 135.065 35.9872 133.964 36.0363C133.816 35.9608 133.765 35.5616 133.917 35.4105L134.389 35.3349C135.917 35.1347 135.868 34.835 135.917 32.212V28.6885C135.917 27.9368 135.868 27.8877 134.666 27.8877H127.515V27.8877Z" fill="#0071CE"/>
<path d="M45.4955 32.4852C45.3544 32.4852 45.2688 32.4058 45.2688 32.2597V31.7183C45.2688 31.586 45.3204 31.5269 45.4816 31.5269H49.9671C50.1283 31.5269 50.1787 31.586 50.1787 31.7183V32.2597C50.1787 32.4058 50.0955 32.4852 49.952 32.4852H45.4955Z" fill="#0071CE"/>
<path d="M117.214 27.4985C116.234 28.1684 114.242 28.1118 114.154 28.1118C114.065 28.113 113.842 28.1118 113.734 28.1029C113.445 28.0803 113.358 27.9946 113.333 27.6912L113.328 21.0171C113.328 20.2137 113.355 20.1142 114.682 20.1142C117.291 20.1142 118.725 21.6933 118.725 24.1262C118.727 25.5743 118.302 26.7492 117.214 27.4985ZM119.022 20.3383C117.844 19.6105 116.286 19.3347 114.207 19.3347C112.124 19.3347 110.569 19.3612 109.242 19.5362C109.04 19.6382 109.013 20.0135 109.191 20.1633L110.093 20.264C111.221 20.3635 111.273 20.8143 111.273 22.9475V32.2031C111.273 34.8349 111.223 35.1359 109.769 35.3386L109.243 35.4142C109.092 35.564 109.142 35.967 109.293 36.0401C110.397 35.9909 111.298 35.967 112.353 35.967C113.358 35.967 114.184 35.9909 115.616 36.0401C115.765 35.967 115.814 35.5401 115.664 35.4142L114.988 35.3386C113.384 35.1623 113.332 34.8349 113.332 32.2031V29.3899C113.347 28.8824 113.465 28.8585 114.158 28.8585H114.765V28.8572C115.815 28.8421 117.46 28.5978 118.528 28.0891C119.6 27.564 121.032 26.4105 121.032 24.101C121.031 22.3708 120.177 21.0662 119.022 20.3383Z" fill="#0071CE"/>
<g opacity="0.2">
<g opacity="0.2">
<path opacity="0.2" d="M24.8499 61.7227C28.6856 60.8526 36.7802 56.9401 33.5401 52.5503C27.6656 44.5968 6.61711 49.1251 6.61711 49.1251C6.61711 49.1251 5.25837 49.2498 5.37171 49.8177C5.43971 50.1602 6.77452 49.994 6.77452 49.994C6.77452 49.994 24.1825 48.3255 27.6304 52.9595C31.0782 57.5936 22.4863 61.01 22.4863 61.01C22.4863 61.01 21.3265 61.4344 21.5683 61.9695C21.8856 62.6735 24.8499 61.7227 24.8499 61.7227Z" fill="#0071CE"/>
</g>
</g>
<path d="M19.5636 40.2434C17.5866 38.0271 15.0844 35.9833 13.7143 33.4044C12.3631 30.8594 12.5747 28.0173 13.5594 25.4144C14.4107 23.1767 15.8941 21.1367 17.6344 19.3636C19.9917 16.9559 21.5583 16.0531 21.2346 15.7231C20.838 15.3252 18.706 17.029 18.4718 17.204C12.0685 21.9905 5.58204 29.6531 9.88619 37.3597C12.5067 42.0467 20.1013 46.2249 20.3997 50.6575C20.508 52.2756 19.5497 54.0222 17.7276 55.245C15.6221 56.6604 12.0584 57.0885 9.94159 56.1932C8.19752 55.4591 8.46826 56.4073 9.78167 57.0747C12.581 58.5052 16.6572 58.7231 20.1013 56.8593C22.7495 55.4276 24.7014 52.8839 24.986 50.1953C25.4254 46.0285 21.722 42.67 19.5636 40.2434Z" fill="#0071CE"/>
<path d="M6.90681 20.2514C7.54399 21.8229 8.11822 23.0054 8.28444 23.8252C8.56148 25.2015 8.22399 25.7304 8.20888 25.9395V25.947C8.20888 26.0087 8.24918 26.0818 8.30333 26.1107C8.41036 26.1724 8.56273 26.1913 8.86496 25.9395C9.71244 25.2381 11.0901 23.8327 9.08407 20.6342C7.08185 17.4395 8.17488 16.4472 8.50607 16.0631C8.76925 15.7558 8.45696 15.5619 8.04644 15.7697C7.40925 16.0921 5.61985 17.0932 6.90681 20.2514Z" fill="#0071CE"/>
<path d="M19.6845 26.7241C18.0311 27.1069 16.8399 27.1724 15.9672 27.6572C15.1562 28.108 14.8276 29.0361 14.6626 29.6909C14.5556 30.1228 14.4901 30.2701 14.2886 30.2701C14.0796 30.2701 14.0317 30.148 13.9461 29.7664C13.6615 28.5135 13.3051 25.2218 18.1004 25.1273C21.8668 25.0543 22.0595 23.4915 22.1854 23.0004C22.2849 22.6101 22.6224 22.7524 22.6879 23.2069C22.7899 23.9159 23.0052 25.9547 19.6845 26.7241Z" fill="#0071CE"/>
<path d="M30.6149 2.0993C30.5997 1.90411 30.5028 1.7253 30.3252 1.57293C29.9134 1.22034 29.6251 1.33619 29.144 1.53641C28.6592 1.73537 27.8483 2.06908 26.21 2.31967L24.3866 2.53374C22.6576 2.7176 20.2914 2.96693 18.1406 3.44419C14.5366 4.24508 6.0996 6.11508 2.43893 14.6994C0.0324855 20.3397 1.15323 27.2706 5.29367 32.3568C6.0316 33.2597 6.60078 33.3453 6.88915 33.1224C7.01256 33.0292 7.09315 32.8693 7.09315 32.6414C7.09315 32.3329 6.94204 31.8997 6.53278 31.3431C4.56582 28.6495 3.55967 25.5467 3.55967 22.4426C3.55967 20.4354 3.98026 18.4269 4.8353 16.5254C8.97574 7.30382 20.4161 5.58997 26.9605 4.73745C24.8172 7.47256 23.4446 10.1069 23.4446 13.512C23.4446 14.8443 23.6524 16.2937 24.1045 17.9106C24.6233 19.7654 24.9646 21.4692 24.9646 23.071C24.9646 25.004 24.4672 26.7858 23.1814 28.4984C21.3329 30.9565 19.1354 31.8518 16.4041 32.4374C15.7682 32.5746 15.466 32.9524 15.466 33.2912C15.466 33.3239 15.4685 33.3579 15.4735 33.3894C15.5403 33.7495 15.9684 34.0782 16.9695 33.9246C23.8929 32.8706 27.8319 29.5549 28.6832 24.0671C28.7297 23.7712 28.7512 23.4614 28.7512 23.144C28.7512 21.7589 28.3583 20.2238 28.0019 18.8411L27.7299 17.7469C27.2766 15.8076 26.8522 13.7651 26.8522 11.6495C26.8522 11.0098 26.89 10.3651 26.9781 9.71026C27.2161 7.96619 27.8092 6.32285 28.6466 5.08248L28.7851 4.88226C29.1214 4.38485 29.44 3.91515 29.751 3.55122C29.7548 3.55122 29.8429 3.44797 29.8429 3.44797C30.2912 2.93041 30.6199 2.55011 30.6199 2.15093C30.6161 2.1333 30.6161 2.11819 30.6149 2.0993Z" fill="#ABC380"/>
<path d="M71.537 43.5806H68.1886V46.8849H66.9205V39.5371H68.1886V42.6424H71.537V39.5371H72.8051V46.8849H71.537V43.5806Z" fill="#0071CE"/>
<path d="M80.6604 46.8834H76.2202V39.5356H80.5269V40.4738H77.487V42.6309H79.7121V43.5691H77.487V45.9465H80.6604V46.8834Z" fill="#0071CE"/>
<path d="M86.0701 41.5656L85.045 44.2176H87.0271L86.0701 41.5656ZM83.9986 46.8835H82.864L85.8485 39.5143H86.609L89.3177 46.8835H88.0068L87.3356 45.0664H84.7139L83.9986 46.8835Z" fill="#0071CE"/>
<path d="M93.3285 45.9465H96.061V46.8834H92.0616V39.5356H93.3285V45.9465Z" fill="#0071CE"/>
<path d="M96.644 39.5356H102.594V40.4725H100.261V46.8834H98.9926V40.4725H96.644V39.5356Z" fill="#0071CE"/>
<path d="M110.064 43.5806H106.716V46.8849H105.449V39.5371H106.716V42.6424H110.064V39.5371H111.332V46.8849H110.064V43.5806Z" fill="#0071CE"/>
<path d="M123.889 46.4227C123.765 46.4958 123.624 46.5701 123.47 46.6419C123.316 46.7161 123.136 46.7804 122.926 46.8345C122.716 46.8912 122.479 46.9353 122.215 46.9718C121.951 47.0083 121.645 47.0247 121.299 47.0247C120.743 47.0247 120.233 46.9252 119.77 46.7262C119.307 46.5235 118.909 46.2477 118.579 45.8976C118.249 45.5488 117.992 45.1446 117.808 44.6875C117.625 44.2278 117.533 43.738 117.533 43.2167C117.533 42.7029 117.625 42.2118 117.808 41.7459C117.992 41.2787 118.25 40.8732 118.579 40.5269C118.91 40.1831 119.307 39.9086 119.77 39.7021C120.233 39.4956 120.741 39.3936 121.299 39.3936C121.668 39.3936 121.989 39.4124 122.265 39.454C122.541 39.4943 122.775 39.5421 122.974 39.5976C123.174 39.6517 123.339 39.7121 123.465 39.7789C123.595 39.8444 123.701 39.8998 123.779 39.9438L123.416 40.8253C123.357 40.7976 123.272 40.7586 123.163 40.7095C123.053 40.6629 122.914 40.6125 122.75 40.5609C122.584 40.5093 122.39 40.4652 122.166 40.4299C121.941 40.3947 121.686 40.3733 121.401 40.3733C121.069 40.3733 120.754 40.445 120.454 40.5836C120.152 40.7233 119.885 40.921 119.653 41.1729C119.422 41.4273 119.238 41.727 119.098 42.077C118.958 42.4271 118.889 42.8061 118.889 43.2179C118.889 43.6209 118.961 43.9936 119.103 44.3412C119.247 44.6862 119.435 44.9859 119.671 45.239C119.906 45.4921 120.18 45.6911 120.489 45.8347C120.803 45.9782 121.129 46.0513 121.467 46.0513C121.754 46.0513 122.002 46.0311 122.215 46.0009C122.427 45.9681 122.614 45.9253 122.77 45.8838C122.929 45.841 123.066 45.7906 123.18 45.7352C123.293 45.681 123.393 45.6319 123.48 45.5866L123.889 46.4227Z" fill="#0071CE"/>
<path d="M129.255 41.5656L128.233 44.2176H130.213L129.255 41.5656ZM127.184 46.8835H126.049L129.035 39.5143H129.795L132.505 46.8835H131.193L130.523 45.0664H127.901L127.184 46.8835Z" fill="#0071CE"/>
<path d="M137.185 42.709C137.44 42.709 137.661 42.6737 137.846 42.6045C138.031 42.5327 138.187 42.4433 138.308 42.3299C138.428 42.2141 138.518 42.0882 138.575 41.9484C138.634 41.8099 138.664 41.6676 138.664 41.5303C138.664 41.383 138.635 41.2407 138.581 41.0996C138.525 40.9599 138.44 40.8377 138.317 40.7307C138.197 40.6249 138.042 40.5405 137.858 40.4776C137.672 40.4146 137.452 40.3844 137.194 40.3844H136.515V42.709H137.185ZM139.336 46.9942L137.274 43.5791H136.515V46.8834H135.249V39.5356H137.298C137.738 39.5356 138.124 39.5898 138.455 39.7006C138.787 39.8127 139.059 39.9562 139.281 40.1376C139.501 40.3164 139.664 40.5204 139.771 40.7471C139.877 40.975 139.931 41.2029 139.931 41.4308C139.931 41.6877 139.885 41.9219 139.788 42.131C139.694 42.3413 139.575 42.5239 139.436 42.6863C139.297 42.8475 139.145 42.9785 138.978 43.083C138.814 43.1862 138.662 43.2593 138.523 43.3033L140.77 46.8834L139.336 46.9942Z" fill="#0071CE"/>
<path d="M147.93 46.8834H143.49V39.5356H147.798V40.4738H144.755V42.6309H146.98V43.5691H144.755V45.9465H147.93V46.8834Z" fill="#0071CE"/>
<path d="M66.9205 60.3866V67.7369H68.1886V64.42H70.1795V63.4819H68.1886V61.3247H71.0169V60.3866H66.9205Z" fill="#0071CE"/>
<path d="M77.069 61.1812C76.7013 61.1812 76.3713 61.2517 76.083 61.394C75.7933 61.5363 75.5453 61.7352 75.3387 61.9921C75.1335 62.249 74.9761 62.555 74.8653 62.9101C74.7557 63.2652 74.7003 63.6506 74.7003 64.0686C74.7003 64.4766 74.7557 64.8594 74.8653 65.2083C74.9761 65.5596 75.1335 65.8643 75.3387 66.1212C75.5453 66.3769 75.7921 66.5771 76.083 66.7244C76.3713 66.8705 76.7013 66.9435 77.069 66.9435C77.4291 66.9435 77.7565 66.8705 78.0474 66.7244C78.3421 66.5783 78.5927 66.3781 78.7992 66.1212C79.0044 65.8656 79.1619 65.5609 79.2714 65.2083C79.3835 64.8594 79.4364 64.4766 79.4364 64.0686C79.4364 63.6581 79.3835 63.2766 79.2714 62.9277C79.1619 62.5752 79.0044 62.2704 78.7992 62.0097C78.5927 61.7503 78.3433 61.5489 78.0474 61.4015C77.7553 61.2542 77.4291 61.1812 77.069 61.1812ZM77.069 60.2443C77.6419 60.2443 78.1595 60.3362 78.6204 60.5251C79.0838 60.7127 79.4767 60.9746 79.7953 61.3134C80.1151 61.6509 80.3619 62.0538 80.5332 62.5235C80.7057 62.9957 80.7926 63.5083 80.7926 64.0686C80.7926 64.6491 80.6956 65.1743 80.5004 65.644C80.3053 66.1137 80.0396 66.5129 79.7021 66.844C79.3646 67.1752 78.9692 67.4309 78.5171 67.6097C78.0676 67.7897 77.584 67.8779 77.0702 67.8779C76.5338 67.8779 76.0389 67.7923 75.5818 67.6147C75.1272 67.4384 74.7343 67.1853 74.4019 66.8541C74.0719 66.5217 73.8138 66.125 73.6262 65.654C73.4398 65.1831 73.3453 64.6554 73.3453 64.0674C73.3453 63.5221 73.4373 63.0197 73.6199 62.5525C73.805 62.0866 74.0606 61.6823 74.3918 61.3411C74.723 60.9986 75.1146 60.7303 75.5717 60.5352C76.0238 60.3425 76.5237 60.2443 77.069 60.2443Z" fill="#0071CE"/>
<path d="M89.717 65.2888C89.717 65.5835 89.6603 65.8857 89.5482 66.1943C89.4399 66.5015 89.2674 66.7823 89.0319 67.0317C88.7964 67.2797 88.4904 67.4837 88.1127 67.6411C87.7349 67.7998 87.2816 67.8779 86.7539 67.8779C86.2666 67.8779 85.841 67.8187 85.4745 67.6966C85.1081 67.5744 84.797 67.4044 84.5502 67.179C84.2996 66.9536 84.1107 66.6854 83.981 66.3743C83.8539 66.062 83.7909 65.7145 83.7909 65.3329V60.3853H85.0577V65.1994C85.0577 65.7737 85.1987 66.2031 85.4821 66.4864C85.7641 66.7748 86.2175 66.9171 86.8421 66.9171C87.1342 66.9171 87.3899 66.8692 87.6064 66.776C87.823 66.6803 88.0031 66.5506 88.1479 66.3882C88.289 66.227 88.396 66.0457 88.4665 65.8379C88.5383 65.6326 88.5723 65.4186 88.5723 65.1982V60.384H89.7182V65.2888H89.717Z" fill="#0071CE"/>
<path d="M98.1867 60.3866V65.7636L93.9997 60.3866H92.9305V67.7369H94.0462V62.4354L98.1867 67.7369H99.3011V60.3866H98.1867Z" fill="#0071CE"/>
<path d="M104.896 66.7987C105.211 66.7987 105.527 66.732 105.838 66.6023C106.15 66.4701 106.43 66.2799 106.677 66.0394C106.922 65.7976 107.122 65.5067 107.27 65.1693C107.422 64.8318 107.496 64.4578 107.496 64.0447C107.496 63.575 107.423 63.1683 107.279 62.8233C107.13 62.477 106.934 62.1936 106.687 61.9733C106.442 61.7529 106.16 61.5892 105.843 61.4822C105.528 61.3764 105.205 61.3247 104.873 61.3247H103.85V66.7987H104.896ZM102.583 60.3866H104.862C105.459 60.3866 106 60.471 106.492 60.6397C106.978 60.8084 107.396 61.0515 107.745 61.3676C108.093 61.6824 108.364 62.0677 108.559 62.5185C108.753 62.9693 108.853 63.4793 108.853 64.0435C108.853 64.5736 108.741 65.0635 108.525 65.5156C108.309 65.9651 108.018 66.3567 107.65 66.6829C107.284 67.009 106.861 67.2672 106.377 67.4548C105.896 67.6399 105.392 67.7344 104.861 67.7344H102.582V60.3866H102.583Z" fill="#0071CE"/>
<path d="M113.765 62.4127L114.723 65.0684H112.74L113.765 62.4127ZM113.545 60.3651L110.558 67.7368H111.693L112.407 65.9172H115.031L115.702 67.7368H117.014L114.303 60.3651H113.545Z" fill="#0071CE"/>
<path d="M118.062 60.3866V61.3247H120.409V67.7369H121.674V61.3247H124.01V60.3866H118.062Z" fill="#0071CE"/>
<path d="M128.063 60.384H126.798V67.7343H128.063V60.384Z" fill="#0071CE"/>
<path d="M134.851 61.1812C134.484 61.1812 134.155 61.2517 133.865 61.394C133.577 61.5363 133.328 61.7352 133.121 61.9921C132.916 62.249 132.758 62.555 132.649 62.9101C132.539 63.2652 132.483 63.6506 132.483 64.0686C132.483 64.4766 132.539 64.8594 132.649 65.2083C132.758 65.5596 132.916 65.8643 133.121 66.1212C133.328 66.3769 133.576 66.5771 133.865 66.7244C134.155 66.8705 134.484 66.9435 134.851 66.9435C135.211 66.9435 135.539 66.8705 135.831 66.7244C136.124 66.5783 136.375 66.3781 136.583 66.1212C136.787 65.8656 136.945 65.5609 137.054 65.2083C137.165 64.8594 137.221 64.4766 137.221 64.0686C137.221 63.6581 137.165 63.2766 137.054 62.9277C136.945 62.5752 136.787 62.2704 136.583 62.0097C136.375 61.7503 136.126 61.5489 135.831 61.4015C135.539 61.2542 135.211 61.1812 134.851 61.1812ZM134.851 60.2443C135.424 60.2443 135.943 60.3362 136.403 60.5251C136.866 60.7127 137.259 60.9746 137.578 61.3134C137.897 61.6509 138.144 62.0538 138.317 62.5235C138.488 62.9957 138.575 63.5083 138.575 64.0686C138.575 64.6491 138.477 65.1743 138.284 65.644C138.09 66.1137 137.822 66.5129 137.484 66.844C137.147 67.1752 136.752 67.4309 136.299 67.6097C135.85 67.7897 135.366 67.8779 134.853 67.8779C134.316 67.8779 133.821 67.7923 133.364 67.6147C132.91 67.4384 132.518 67.1853 132.185 66.8541C131.854 66.5217 131.596 66.125 131.408 65.654C131.222 65.1831 131.129 64.6554 131.129 64.0674C131.129 63.5221 131.22 63.0197 131.403 62.5525C131.587 62.0866 131.845 61.6823 132.175 61.3411C132.505 60.9986 132.898 60.7303 133.353 60.5352C133.809 60.3425 134.307 60.2443 134.851 60.2443Z" fill="#0071CE"/>
<path d="M146.827 60.3866V65.7636L142.641 60.3866H141.573V67.7369H142.684V62.4354L146.827 67.7369H147.939V60.3866H146.827Z" fill="#0071CE"/>
</g>
<defs>
<clipPath id="clip0_55_227">
<rect width="151.426" height="68" fill="white" transform="translate(0.388916)"/>
</clipPath>
</defs>
</svg>
