<svg width="183" height="83" viewBox="0 0 183 83" fill="none" xmlns="http://www.w3.org/2000/svg">
<path d="M179.075 62.6685C178.324 62.6365 139.605 59.2363 101.822 62.5408C83.0014 64.1322 64.2325 67.7483 51.8612 73.3738C38.9959 78.8337 38.8287 80.1545 52.4053 74.6081C64.9757 69.4674 83.5304 66.28 102.31 65.4181C139.989 63.5789 178.35 68.3837 179.029 68.4125C180.54 68.5569 181.779 67.4033 181.818 65.8225C181.858 64.2371 180.619 62.8205 179.075 62.6685Z" fill="white"/>
<path d="M172.856 27.5428C172.756 27.6887 172.824 28.0292 173.002 27.979C174.254 27.6173 175.557 26.649 175.575 25.1594C175.594 23.9146 174.818 23.2169 173.972 23.1667C173.177 23.1211 172.807 23.6227 172.836 24.0194C172.859 24.4086 173.099 24.6062 173.374 24.6822C173.779 24.787 174.428 25.1138 174.428 25.7598C174.429 26.6126 173.622 27.1917 172.856 27.5428Z" fill="white"/>
<path d="M52.1287 25.7261C52.2062 25.7352 52.2427 25.7094 52.267 25.6668C52.3081 25.609 52.3278 25.5376 52.3567 25.4753C52.4996 25.1546 52.7367 24.8004 53.0301 24.5724C53.5499 24.1666 54.2704 24.1134 55.0441 24.1134H55.7691C56.2616 24.1134 56.2616 24.1316 56.2616 24.6423V31.8395C56.2616 33.5723 56.1597 33.8231 55.2386 33.9022L54.6443 33.9523C54.5136 34.0359 54.544 34.4083 54.6443 34.457C55.7037 34.4235 56.2798 34.4083 56.941 34.4083C57.5976 34.4083 58.6632 34.4235 59.6056 34.457C59.7029 34.4083 59.7363 34.0177 59.6375 33.9523L59.1055 33.9022C58.2041 33.8125 58.119 33.5723 58.119 31.8395H58.1205V24.6758C58.1205 24.1316 58.1023 24.1134 58.5963 24.1134H59.5372C60.5358 24.124 61.08 24.2122 61.4372 24.5192C61.732 24.7746 61.84 25.1211 61.8947 25.4996C61.9038 25.5528 61.9038 25.606 61.9175 25.6546C61.9297 25.7094 61.9707 25.7261 62.0816 25.7261C62.1835 25.7261 62.4388 25.717 62.4358 25.6197C62.4267 25.1667 62.492 24.0009 62.6684 23.1618C62.6744 23.1269 62.6927 23.098 62.6912 23.0661C62.6866 22.9946 62.4814 22.9688 62.4267 22.9627C62.3537 22.9536 62.3005 22.9703 62.2732 23.0083C62.0163 23.3777 61.7032 23.513 61.0055 23.513H54.0925C53.2657 23.513 52.8963 23.4263 52.7808 22.9977C52.7732 22.9688 52.5224 22.949 52.457 22.9642C52.3886 22.9794 52.3704 23.0418 52.3506 23.136C52.2457 23.7166 51.9797 24.8369 51.7867 25.4434C51.7487 25.5558 51.7654 25.5999 51.8247 25.6349C51.8946 25.6729 52.0496 25.72 52.1287 25.7261Z" fill="white"/>
<path d="M174.402 43.8143C176.884 43.8143 178.433 42.2745 178.454 40.5098C178.474 39.0187 177.67 38.1659 176.15 37.1597C175.545 36.7615 175.379 36.6627 174.856 36.2872C174.014 35.6777 173.311 35.0803 173.335 34.0467C173.356 33.1743 174.048 32.2547 175.395 32.2547C176.911 32.2547 177.507 33.3035 177.734 34.1501C177.82 34.258 178.191 34.2048 178.263 34.0999C178.263 33.3582 178.106 32.3717 177.948 31.9461C177.808 31.9461 177.562 31.8823 177.337 31.8427C176.709 31.7257 176.384 31.595 175.355 31.595C173.204 31.595 171.856 32.9934 171.766 34.5468C171.684 36.003 172.614 36.9013 173.529 37.5291C174.403 38.1295 174.68 38.324 175.328 38.7891C176.527 39.6555 176.913 40.4171 176.831 41.2895C176.723 42.4493 175.89 43.2093 174.58 43.1743C172.742 43.1242 171.842 41.5221 171.575 40.6223C171.503 40.5189 171.046 40.5417 171.049 40.6922C171.066 41.4461 171.306 42.7746 171.52 43.1622C171.853 43.3552 172.932 43.8143 174.402 43.8143Z" fill="white"/>
<path d="M66.0334 53.3216C68.8378 53.3216 70.981 51.3943 71.9782 48.982C72.5497 47.5897 72.6713 45.5058 72.6713 43.124V28.9165C72.6713 25.7169 72.7306 24.4568 74.512 24.2152L74.9634 24.1528C75.1458 24.0312 75.085 23.4886 74.9026 23.3989C73.6973 23.4612 72.6713 23.4886 71.4629 23.4886C70.1982 23.4886 69.1707 23.4612 67.4197 23.3989C67.2388 23.4886 67.181 24.0312 67.3589 24.1528L68.1128 24.2152C69.8958 24.3656 70.1982 25.5695 70.1982 28.9165V43.3368C70.1982 44.9647 70.104 49.4912 69.4109 50.9094C69.1996 51.3335 68.8363 51.6937 68.204 51.6937C67.7814 51.6937 67.3573 51.6056 66.9378 51.4855C66.5457 51.3639 66.1839 51.3016 65.8237 51.3016C65.1883 51.3016 64.7354 52.1801 64.7354 52.6908C64.7354 53.2928 65.6717 53.3216 66.0334 53.3216Z" fill="white"/>
<path d="M87.0338 43.8885C92.8569 43.8885 97.5036 39.4516 97.5036 33.361C97.5036 28.0501 94.0015 23.0098 87.0338 23.0098C80.8216 23.0098 76.292 27.629 76.292 33.6619C76.2905 39.0914 80.3352 43.8885 87.0338 43.8885ZM86.5201 23.9446C92.2854 23.9446 94.4818 29.3162 94.4818 34.2942C94.4818 40.2374 91.0421 42.9552 87.426 42.9552C81.4843 42.9552 79.3107 37.1625 79.3107 32.6967C79.3107 26.0908 83.3828 23.9446 86.5201 23.9446Z" fill="white"/>
<path d="M104.806 43.8887C108.73 43.8887 111.235 41.6269 111.234 38.3088C111.234 35.442 109.361 33.6925 107.458 32.516L105.05 31.0097C103.933 30.2816 102.485 29.0459 102.485 27.2948C102.485 25.9086 103.126 23.9478 106.073 23.9478C108.97 23.9478 109.787 25.9086 110.176 27.3572C110.329 27.535 110.808 27.4468 110.93 27.2629C110.93 25.9983 110.662 24.3096 110.392 23.583C110.15 23.583 109.727 23.4948 109.334 23.4021C108.551 23.162 107.458 23.0115 106.526 23.0115C102.609 23.0115 100.369 25.3325 100.369 28.2008C100.369 30.6768 102.118 32.3944 103.632 33.3916L106.494 35.2612C108.7 36.6793 108.97 38.1552 108.97 39.4852C108.97 41.294 107.736 42.9554 105.201 42.9554C101.7 42.9554 100.466 39.996 100.01 38.4608C99.8884 38.2784 99.437 38.3376 99.2834 38.5489C99.3427 39.9686 99.7379 42.1118 100.097 42.7776C100.673 43.1028 102.273 43.8887 104.806 43.8887Z" fill="white"/>
<path d="M44.53 43.8887C48.4516 43.8887 50.9565 41.6269 50.9565 38.3088C50.9565 35.442 49.0839 33.6925 47.1869 32.516L44.7701 31.0097C43.6529 30.2816 42.2059 29.0459 42.2059 27.2948C42.2059 25.9086 42.8397 23.9478 45.7931 23.9478C48.6917 23.9478 49.5065 25.9086 49.8986 27.3572C50.0506 27.535 50.534 27.4468 50.651 27.2629C50.651 25.9983 50.3805 24.3096 50.1084 23.583C49.8667 23.583 49.4472 23.4948 49.0535 23.4021C48.2692 23.162 47.1854 23.0115 46.2461 23.0115C42.3245 23.0115 40.0931 25.3325 40.0931 28.2008C40.0931 30.6768 41.8426 32.3944 43.352 33.3916L46.2187 35.2612C48.4181 36.6793 48.6933 38.1552 48.6933 39.4852C48.6933 41.294 47.456 42.9554 44.9221 42.9554C41.4216 42.9554 40.1858 39.996 39.7313 38.4608C39.6097 38.2784 39.1583 38.3376 39.0078 38.5489C39.0686 39.9686 39.4593 42.1118 39.8225 42.7776C40.3956 43.1028 41.9946 43.8887 44.53 43.8887Z" fill="white"/>
<path d="M117.782 43.4065H120.495C123.179 43.4065 125.865 43.4384 128.578 43.4962C128.968 42.683 129.728 40.3604 129.94 39.304C129.82 39.0335 129.395 38.9408 129.18 39.0928C128.396 40.6599 127.586 41.7193 127.04 42.0188C126.378 42.3516 125.502 42.4763 123.179 42.4763C120.526 42.4763 119.889 42.1404 119.533 41.7786C119.05 41.2694 118.96 40.2434 118.96 38.6428V34.3823C118.96 33.601 119.047 33.5721 119.951 33.5721H121.705C122.875 33.5721 123.605 33.601 124.018 33.7211C124.625 33.8731 124.835 34.326 124.958 34.8687L125.228 36.0467C125.38 36.2245 125.894 36.2245 126.016 36.0132C126.016 35.352 125.894 34.2029 125.894 33.1176C125.894 31.97 126.016 30.792 126.016 30.07C125.894 29.8588 125.38 29.8588 125.228 30.0396L124.991 31.2769C124.835 32.0324 124.626 32.2117 124.265 32.3333C123.898 32.4534 122.967 32.5157 121.7 32.5157H119.948C119.044 32.5157 118.955 32.5157 118.955 31.6706V25.6347C118.955 24.4871 118.955 24.4293 119.861 24.4293H122.033C123.363 24.4293 124.324 24.4597 124.961 24.6087C126.528 25.0024 126.802 26.0588 127.25 27.4739C127.407 27.6563 127.89 27.597 128.01 27.4161C127.89 26.0861 127.703 23.9156 127.528 23.4033C127.165 23.4915 125.385 23.4915 123.452 23.4915H117.783C116.54 23.4915 115.517 23.4611 114.219 23.4033C114.038 23.4915 113.976 24.0341 114.16 24.1557L114.639 24.218C116.418 24.4293 116.482 24.8808 116.482 28.0196H116.481V38.8815C116.481 42.0476 116.33 42.4991 114.611 42.6541L113.619 42.7438C113.436 42.9232 113.496 43.4065 113.676 43.4947C115.458 43.4369 116.484 43.4065 117.782 43.4065Z" fill="white"/>
<path d="M147.688 24.215C149.253 24.3366 149.468 24.8519 149.468 28.0211V38.8815C149.468 42.0476 149.405 42.3516 147.72 42.6511L147.206 42.7423C147.022 42.9247 147.081 43.4065 147.264 43.4977C148.442 43.4673 149.468 43.405 150.766 43.405C151.944 43.405 152.968 43.4369 154.598 43.4977C154.78 43.408 154.838 42.8624 154.657 42.7423L153.785 42.6511C152.094 42.4732 151.945 42.0476 151.945 38.8815V34.6285C151.945 33.7211 152.006 33.6618 153.45 33.6618H162.082C163.532 33.6618 163.592 33.7211 163.592 34.6285V38.8815C163.532 42.0476 163.592 42.4079 161.748 42.6511L161.178 42.7423C160.994 42.9247 161.056 43.4065 161.234 43.4977C162.564 43.4384 163.651 43.405 164.888 43.405C166.063 43.405 167.085 43.4369 168.536 43.4977C168.719 43.408 168.776 42.8624 168.597 42.7423L167.87 42.6511C166.121 42.4398 166.063 42.0476 166.063 38.8815V28.0211C166.063 24.8519 166.121 24.3974 167.87 24.215L168.506 24.1572C168.684 24.0356 168.624 23.493 168.44 23.4033C167.081 23.4611 166.062 23.493 164.887 23.493C163.648 23.493 162.622 23.4611 161.231 23.4033C161.053 23.493 160.991 24.0356 161.175 24.1572L161.745 24.215C163.529 24.3974 163.589 24.8519 163.589 28.0211V31.4882C163.589 32.423 163.529 32.4534 162.079 32.4534H153.449C152.005 32.4534 151.944 32.423 151.944 31.4882V28.0211C151.944 24.8519 152.005 24.3974 153.75 24.215L154.326 24.1572C154.503 24.0356 154.447 23.493 154.263 23.4033C152.967 23.4611 151.944 23.493 150.763 23.493C149.466 23.493 148.442 23.4322 146.963 23.4033C146.785 23.493 146.723 24.0356 146.9 24.1572L147.688 24.215Z" fill="white"/>
<path d="M54.43 38.0549C54.2354 38.0549 54.1731 38.1264 54.1731 38.286V38.9396C54.1731 39.1159 54.2765 39.2117 54.4467 39.2117H59.826C59.9993 39.2117 60.0996 39.1159 60.0996 38.9396V38.286C60.0996 38.1264 60.0388 38.0549 59.8442 38.0549H54.43Z" fill="white"/>
<path d="M132.42 24.4599C133.781 24.58 133.844 25.1241 133.844 27.699V38.871C133.844 42.0478 133.785 42.4111 132.03 42.6543L131.395 42.747C131.213 42.9279 131.274 43.4143 131.454 43.5025C132.787 43.4432 133.876 43.4143 135.15 43.4143C136.362 43.4143 137.36 43.4432 139.088 43.5025C139.267 43.4143 139.326 42.899 139.146 42.747L138.329 42.6543C136.393 42.4415 136.331 42.0478 136.331 38.871V35.4753C136.35 34.8628 136.492 34.8339 137.328 34.8339H138.06V34.8324C139.328 34.8141 141.313 34.5193 142.602 33.9052C143.897 33.2713 145.624 31.879 145.624 29.0913C145.624 27.0029 144.592 25.4281 143.198 24.5496C141.775 23.671 139.895 23.3381 137.385 23.3381C134.871 23.3381 132.994 23.3701 131.392 23.5813C131.15 23.7045 131.115 24.1574 131.333 24.3383L132.42 24.4599ZM137.958 24.279C141.108 24.279 142.839 26.1851 142.839 29.1217C142.842 30.8697 142.328 32.2879 141.017 33.1923C139.834 34.0009 137.43 33.9325 137.322 33.9325C137.214 33.9341 136.946 33.9325 136.814 33.9219C136.466 33.8945 136.361 33.7912 136.332 33.4249L136.326 25.3689C136.326 24.3991 136.356 24.279 137.958 24.279Z" fill="white"/>
<path d="M29.5795 58.2603C28.8301 54.2977 25.3357 51.0373 23.1453 48.5764C20.7589 45.9012 17.7387 43.4342 16.0849 40.3213C14.454 37.2494 14.7093 33.8187 15.898 30.6769C16.9255 27.9758 18.7161 25.5134 20.8167 23.3733C23.6621 20.467 25.553 19.3772 25.1624 18.979C24.6836 18.4986 22.1102 20.5552 21.8275 20.7665C14.0983 26.544 6.26878 35.7932 11.4641 45.0956C13.9524 49.5462 20.1357 53.6137 22.8459 57.7511C14.9191 57.7086 7.51822 59.297 7.51822 59.297C7.51822 59.297 5.87814 59.4474 6.01494 60.133C6.09702 60.5464 7.70822 60.3473 7.70822 60.3473C7.70822 60.3473 16.6625 59.49 24.0391 60.4506C24.0862 60.6817 24.1394 60.9158 24.1561 61.1483C24.2869 63.1015 23.1301 65.2098 20.9307 66.6857C18.3893 68.3942 14.0877 68.911 11.5325 67.8302C9.42734 66.9441 9.75414 68.0886 11.3395 68.8942C14.7185 70.621 19.6387 70.8839 23.7959 68.6328C26.6261 67.1022 28.7921 64.5197 29.4913 61.6955C30.9809 62.2534 32.1787 62.9799 32.884 63.9284C37.0457 69.522 26.6748 73.6458 26.6748 73.6458C26.6748 73.6458 25.2749 74.158 25.5667 74.804C25.9497 75.6537 29.5278 74.5076 29.5278 74.5076C34.1577 73.4573 43.9283 68.7331 40.0173 63.4344C37.8407 60.4856 33.9404 58.9626 29.5795 58.2603Z" fill="white"/>
<path d="M9.43943 31.3197C9.43943 31.3941 9.48807 31.4823 9.55343 31.5173C9.68263 31.5917 9.86655 31.6145 10.2313 31.3105C11.2543 30.4639 12.9172 28.7676 10.4958 24.9068C8.07903 21.0505 9.39839 19.8528 9.79815 19.3892C10.1158 19.0183 9.73887 18.7842 9.24335 19.035C8.47423 19.4241 6.31431 20.6325 7.86775 24.4447C8.63687 26.3417 9.32999 27.7689 9.53063 28.7585C9.86503 30.4198 9.45767 31.0582 9.43943 31.3105V31.3197V31.3197Z" fill="white"/>
<path d="M23.2912 32.2577C27.2995 31.329 27.0396 28.8681 26.9164 28.0124C26.8374 27.4637 26.43 27.2919 26.31 27.7631C26.158 28.3559 25.9254 30.2422 21.3791 30.3304C15.5909 30.4444 16.0211 34.4177 16.3646 35.9301C16.468 36.3906 16.5257 36.5381 16.778 36.5381C17.0212 36.5381 17.1003 36.3602 17.2295 35.8389C17.4286 35.0485 17.8253 33.9282 18.8042 33.3841C19.8576 32.7989 21.2955 32.7198 23.2912 32.2577Z" fill="white"/>
<path d="M7.8464 39.9806C7.99536 39.8681 8.09264 39.6751 8.09264 39.4C8.09264 39.0276 7.91024 38.5047 7.41624 37.8329C5.042 34.5816 3.82752 30.8363 3.82752 27.0895C3.82752 24.6666 4.3352 22.2422 5.36728 19.947C10.365 8.81606 24.1742 6.74734 32.0737 5.7183C29.4866 9.01974 27.8298 12.1996 27.8298 16.3097C27.8298 17.9178 28.0806 19.6673 28.6263 21.619C29.2526 23.858 29.6645 25.9145 29.6645 27.848C29.6645 30.1812 29.0641 32.332 27.5122 34.3992C25.2808 37.3662 22.6284 38.4469 19.3315 39.1537C18.5639 39.3194 18.1991 39.7754 18.1991 40.1843C18.1991 40.2238 18.2022 40.2649 18.2082 40.3029C18.2888 40.7376 18.8056 41.1343 20.014 40.9489C28.371 39.6766 33.1255 35.6745 34.153 29.0503C34.2093 28.6931 34.2351 28.3192 34.2351 27.9361C34.2351 26.2641 33.7609 24.4113 33.3307 22.7423L33.0024 21.4214C32.4552 19.0806 31.943 16.6152 31.943 14.0616C31.943 13.2894 31.9886 12.5112 32.095 11.7208C32.3822 9.61558 33.0982 7.63198 34.109 6.13478L34.2762 5.8931C34.682 5.2927 35.0666 4.72574 35.442 4.28646C35.4466 4.28646 35.553 4.16182 35.553 4.16182C36.0941 3.5371 36.4908 3.07806 36.4908 2.59622C36.4862 2.57494 36.4862 2.5567 36.4847 2.5339C36.4665 2.2983 36.3494 2.08246 36.1351 1.89854C35.6381 1.47294 35.29 1.61278 34.7094 1.85446C34.1242 2.09462 33.1453 2.49742 31.1678 2.7999L28.9668 3.0583C26.8798 3.28022 24.0238 3.58118 21.4276 4.15726C17.0774 5.12398 6.89336 7.38118 2.47472 17.743C-0.430004 24.5511 0.922796 32.9172 5.92056 39.0565C6.81128 40.1463 7.49832 40.2497 7.8464 39.9806Z" fill="white"/>
<path d="M87.4108 56.5926V47.7219H85.8802V51.4718H81.8385V47.7219H80.3079V56.5926H81.8385V52.6026H85.8802V56.5926H87.4108Z" fill="white"/>
<path d="M96.7314 48.8543V47.7219H91.533V56.5896H96.8925V55.4587H93.0621V52.592H95.7479V51.4581H93.0621V48.8543H96.7314Z" fill="white"/>
<path d="M103.155 47.696L99.5525 56.5911H100.922L101.784 54.3992H104.948L105.759 56.5911H107.341L104.071 47.696H103.155ZM102.185 53.3732L103.422 50.1721L104.578 53.3732H102.185Z" fill="white"/>
<path d="M110.655 47.7219V56.5896H115.482V55.4587H112.184V47.7219H110.655Z" fill="white"/>
<path d="M120.553 56.5896V48.8543H123.368V47.7219H116.186V48.8543H119.021V56.5896H120.553Z" fill="white"/>
<path d="M133.915 56.5926V47.7219H132.386V51.4718H128.343V47.7219H126.814V56.5926H128.343V52.6026H132.386V56.5926H133.915Z" fill="white"/>
<path d="M142.663 48.9201C142.265 49.3366 141.953 49.826 141.733 50.39C141.512 50.9539 141.398 51.5467 141.398 52.1653C141.398 52.7946 141.511 53.3874 141.733 53.9407C141.955 54.4924 142.266 54.9819 142.663 55.4029C143.061 55.8255 143.541 56.1584 144.099 56.4016C144.657 56.6417 145.273 56.7618 145.946 56.7618C146.363 56.7618 146.733 56.742 147.051 56.698C147.37 56.6539 147.656 56.6007 147.908 56.5323C148.164 56.4669 148.381 56.3894 148.567 56.3012C148.752 56.2146 148.921 56.1249 149.073 56.0368L148.579 55.0275C148.474 55.0807 148.352 55.14 148.217 55.2053C148.079 55.2737 147.913 55.333 147.723 55.3862C147.533 55.4364 147.309 55.4865 147.053 55.526C146.796 55.5656 146.496 55.5884 146.15 55.5884C145.741 55.5884 145.349 55.4987 144.97 55.3269C144.596 55.1536 144.266 54.9135 143.984 54.6064C143.698 54.3024 143.47 53.9407 143.298 53.5227C143.126 53.1032 143.04 52.6548 143.04 52.1668C143.04 51.6698 143.123 51.2108 143.292 50.7897C143.459 50.3687 143.681 50.0054 143.961 49.6968C144.242 49.3944 144.563 49.1557 144.928 48.987C145.289 48.8198 145.669 48.7316 146.071 48.7316C146.416 48.7316 146.724 48.759 146.993 48.8C147.264 48.8426 147.498 48.8958 147.699 48.9581C147.896 49.0204 148.065 49.0812 148.197 49.1375C148.329 49.1968 148.43 49.2439 148.503 49.2773L148.94 48.2148C148.846 48.1616 148.719 48.0932 148.56 48.0142C148.408 47.9336 148.211 47.8607 147.969 47.7953C147.729 47.7269 147.445 47.6707 147.113 47.622C146.779 47.5719 146.393 47.5491 145.948 47.5491C145.274 47.5491 144.659 47.6722 144.101 47.92C143.543 48.1708 143.063 48.5036 142.663 48.9201Z" fill="white"/>
<path d="M151.68 56.5896H153.048L153.914 54.3978H157.079L157.887 56.5896H159.471L156.2 47.6946H155.282L151.68 56.5896ZM156.706 53.3733H154.317L155.551 50.1722L156.706 53.3733Z" fill="white"/>
<path d="M167.839 51.525C168.004 51.3289 168.15 51.1085 168.263 50.8546C168.378 50.6023 168.435 50.3196 168.435 50.008C168.435 49.7344 168.369 49.4593 168.241 49.1826C168.114 48.909 167.915 48.6628 167.65 48.4485C167.381 48.2296 167.053 48.0563 166.653 47.921C166.253 47.7873 165.787 47.7219 165.258 47.7219H162.785V56.5896H164.311V52.6026H165.229L167.717 56.7234L169.448 56.5896L166.738 52.2698C166.904 52.2166 167.088 52.1269 167.287 52.0022C167.488 51.8776 167.67 51.718 167.839 51.525ZM166.799 50.6342C166.731 50.8014 166.621 50.955 166.475 51.0948C166.329 51.2316 166.142 51.338 165.919 51.4262C165.695 51.5113 165.429 51.5523 165.121 51.5523H164.312V48.7464H165.132C165.443 48.7464 165.711 48.7814 165.934 48.8589C166.156 48.9334 166.343 49.0352 166.487 49.1644C166.636 49.2921 166.737 49.441 166.807 49.6098C166.872 49.7785 166.905 49.9518 166.905 50.1296C166.907 50.2953 166.87 50.467 166.799 50.6342Z" fill="white"/>
<path d="M177.933 48.8543V47.7219H172.731V56.5896H178.091V55.4587H174.261V52.592H176.945V51.4581H174.261V48.8543H177.933Z" fill="white"/>
<path d="M80.3079 81.7626H81.8385V77.7589H84.2416V76.6265H81.8385V74.0228H85.2524V72.8904H80.3079V81.7626Z" fill="white"/>
<path d="M95.8499 74.007C95.4638 73.5982 94.9911 73.282 94.4302 73.057C93.8739 72.829 93.2492 72.7166 92.5576 72.7166C91.8994 72.7166 91.296 72.8351 90.7518 73.0677C90.2001 73.3018 89.7273 73.6255 89.3276 74.0405C88.9278 74.4524 88.6193 74.9418 88.3958 75.5027C88.1754 76.0666 88.0645 76.6731 88.0645 77.3313C88.0645 78.0411 88.1785 78.6795 88.4034 79.2465C88.6299 79.815 88.9415 80.2938 89.3397 80.695C89.741 81.0963 90.2153 81.4018 90.764 81.6131C91.3157 81.829 91.9131 81.9308 92.5621 81.9308C93.1808 81.9308 93.7645 81.8259 94.3071 81.607C94.8528 81.3912 95.3301 81.0842 95.7374 80.6844C96.1448 80.2831 96.4655 79.8028 96.7011 79.2358C96.9367 78.6689 97.0522 78.035 97.0522 77.3343C97.0522 76.6594 96.9489 76.0378 96.7406 75.4678C96.5324 74.9008 96.2345 74.4159 95.8499 74.007ZM95.2176 78.7099C95.0838 79.134 94.8938 79.5018 94.6476 79.8119C94.3983 80.122 94.0958 80.3637 93.7386 80.54C93.389 80.7178 92.9938 80.806 92.5576 80.806C92.1137 80.806 91.7155 80.7178 91.3674 80.54C91.0163 80.3637 90.7184 80.122 90.4691 79.8119C90.2213 79.5034 90.0313 79.1355 89.8976 78.7099C89.7653 78.2889 89.6985 77.8268 89.6985 77.3343C89.6985 76.8297 89.7653 76.3646 89.8976 75.9359C90.0313 75.5073 90.2213 75.1394 90.4691 74.8278C90.7184 74.5193 91.0178 74.2791 91.3674 74.1058C91.7155 73.9341 92.1137 73.849 92.5576 73.849C92.9938 73.849 93.386 73.9371 93.7386 74.1149C94.0943 74.2928 94.3983 74.536 94.6476 74.8491C94.8938 75.1638 95.0838 75.5301 95.2176 75.9572C95.3513 76.3767 95.4167 76.8373 95.4167 77.3328C95.4152 77.8268 95.3498 78.2889 95.2176 78.7099Z" fill="white"/>
<path d="M106.441 78.6981C106.441 78.9641 106.402 79.2225 106.313 79.4703C106.23 79.7211 106.099 79.94 105.93 80.136C105.756 80.3321 105.538 80.4872 105.275 80.6027C105.014 80.7152 104.705 80.7744 104.354 80.7744C103.6 80.7744 103.053 80.6027 102.713 80.2531C102.371 79.9111 102.199 79.3943 102.199 78.6996V72.8902H100.67V78.8623C100.67 79.3244 100.747 79.7424 100.899 80.1193C101.056 80.4948 101.284 80.8185 101.586 81.0906C101.883 81.3642 102.26 81.5679 102.702 81.7153C103.144 81.8628 103.658 81.9342 104.246 81.9342C104.883 81.9342 105.43 81.84 105.886 81.6484C106.342 81.4584 106.712 81.2122 106.994 80.9128C107.28 80.6133 107.487 80.2744 107.618 79.9035C107.754 79.5296 107.823 79.1663 107.823 78.8106V72.8887H106.44V78.6981H106.441Z" fill="white"/>
<path d="M118.048 79.3823L112.994 72.8904H111.702V81.7626H113.05V75.3634L118.048 81.7626H119.393V72.8904H118.048V79.3823Z" fill="white"/>
<path d="M129.585 74.0729C129.165 73.6929 128.66 73.3996 128.072 73.1944C127.479 72.9922 126.826 72.8904 126.105 72.8904H123.354H123.351V81.7596H126.104C126.745 81.7596 127.353 81.6456 127.934 81.4206C128.518 81.1957 129.028 80.8825 129.471 80.4904C129.916 80.0967 130.266 79.624 130.527 79.0813C130.787 78.5357 130.922 77.9444 130.922 77.3029C130.922 76.6235 130.804 76.0064 130.57 75.4622C130.332 74.9196 130.004 74.4529 129.585 74.0729ZM129.012 78.6633C128.834 79.0707 128.592 79.4218 128.294 79.7137C127.998 80.0025 127.659 80.2335 127.282 80.3931C126.908 80.5497 126.526 80.6287 126.146 80.6287H124.883V74.0213H126.117C126.519 74.0213 126.909 74.0836 127.289 74.2113C127.672 74.3405 128.013 74.5381 128.308 74.8041C128.606 75.0701 128.844 75.4121 129.022 75.8301C129.197 76.2465 129.287 76.739 129.287 77.306C129.287 77.8061 129.195 78.256 129.012 78.6633Z" fill="white"/>
<path d="M136.586 72.8657L132.979 81.7638H134.35L135.212 79.5674H138.378L139.188 81.7638H140.77L137.499 72.8657H136.586ZM135.616 78.5414L136.852 75.3357L138.008 78.5414H135.616Z" fill="white"/>
<path d="M142.037 74.0228H144.873V81.7626H146.398V74.0228H149.219V72.8904H142.037V74.0228Z" fill="white"/>
<path d="M154.112 72.8872H152.584V81.7594H154.112V72.8872Z" fill="white"/>
<path d="M165.593 74.007C165.21 73.5982 164.736 73.282 164.177 73.057C163.622 72.829 162.996 72.7166 162.304 72.7166C161.648 72.7166 161.046 72.8351 160.495 73.0677C159.948 73.3018 159.472 73.6255 159.074 74.0405C158.676 74.4524 158.364 74.9418 158.142 75.5027C157.92 76.0666 157.811 76.6731 157.811 77.3313C157.811 78.0411 157.922 78.6795 158.148 79.2465C158.373 79.815 158.687 80.2938 159.086 80.695C159.486 81.0963 159.959 81.4018 160.509 81.6131C161.061 81.829 161.658 81.9308 162.306 81.9308C162.926 81.9308 163.511 81.8259 164.054 81.607C164.598 81.3912 165.075 81.0842 165.482 80.6844C165.89 80.2846 166.214 79.8028 166.448 79.2358C166.682 78.6689 166.799 78.035 166.799 77.3343C166.799 76.6594 166.694 76.0378 166.487 75.4678C166.28 74.9008 165.981 74.4159 165.593 74.007ZM164.961 78.7099C164.83 79.134 164.64 79.5018 164.394 79.8119C164.142 80.122 163.841 80.3637 163.485 80.54C163.134 80.7178 162.737 80.806 162.304 80.806C161.859 80.806 161.464 80.7178 161.114 80.54C160.764 80.3637 160.463 80.122 160.214 79.8119C159.968 79.5034 159.778 79.1355 159.644 78.7099C159.513 78.2889 159.445 77.8268 159.445 77.3343C159.445 76.8297 159.513 76.3646 159.644 75.9359C159.778 75.5073 159.968 75.1394 160.214 74.8278C160.463 74.5193 160.766 74.2791 161.114 74.1058C161.464 73.9341 161.859 73.849 162.304 73.849C162.737 73.849 163.134 73.9371 163.485 74.1149C163.841 74.2928 164.142 74.536 164.394 74.8491C164.64 75.1638 164.83 75.5301 164.961 75.9572C165.096 76.3767 165.165 76.8373 165.165 77.3328C165.165 77.8268 165.096 78.2889 164.961 78.7099Z" fill="white"/>
<path d="M176.759 79.3823L171.707 72.8904H170.418V81.7626H171.759V75.3634L176.759 81.7626H178.102V72.8904H176.759V79.3823Z" fill="white"/>
</svg>
