<svg width="183" height="83" viewBox="0 0 183 83" fill="none" xmlns="http://www.w3.org/2000/svg">
<g clip-path="url(#clip0_55_39)">
<path d="M176.554 28.5559C176.446 28.7049 176.519 29.0545 176.702 29.0028C177.986 28.6319 179.319 27.6424 179.339 26.1148C179.357 24.8395 178.564 24.1251 177.694 24.075C176.881 24.0263 176.506 24.5416 176.533 24.9459C176.554 25.3442 176.804 25.5479 177.086 25.6269C177.498 25.7333 178.164 26.0677 178.164 26.7304C178.165 27.6029 177.337 28.1957 176.554 28.5559Z" fill="white"/>
<path d="M63.2912 23.9109C63.0252 24.2909 62.706 24.4293 61.9916 24.4293H54.913C54.0648 24.4293 53.6864 24.3396 53.5678 23.9018C53.5602 23.8729 53.3018 23.8517 53.2364 23.8669C53.1665 23.8836 53.1468 23.9459 53.1255 24.0432C53.0191 24.639 52.747 25.7866 52.5494 26.4068C52.5099 26.5208 52.5266 26.5679 52.5889 26.6029C52.6604 26.6409 52.8184 26.6895 52.9005 26.6971C52.9796 26.7062 53.016 26.6773 53.0419 26.6348C53.0829 26.577 53.1042 26.5041 53.1331 26.4387C53.2805 26.1104 53.5207 25.7486 53.8232 25.513C54.3552 25.0981 55.0954 25.0449 55.8873 25.0449H56.626C57.1337 25.0449 57.1337 25.0631 57.1337 25.586V32.958C57.1337 34.7318 57.0288 34.9887 56.0834 35.0708L55.4754 35.1209C55.3432 35.2061 55.3751 35.5876 55.4754 35.6393C56.5607 35.6043 57.1519 35.5876 57.8283 35.5876C58.5032 35.5876 59.5931 35.6043 60.5583 35.6393C60.6571 35.5876 60.6936 35.1893 60.5917 35.1209L60.0476 35.0708C59.1219 34.9811 59.0352 34.7318 59.0352 32.958V25.6194C59.0352 25.0631 59.017 25.0449 59.5247 25.0449H60.4868C61.5098 25.054 62.0661 25.1452 62.4324 25.4598C62.7334 25.7213 62.8459 26.0769 62.9006 26.4645C62.9097 26.5177 62.9097 26.5725 62.9234 26.6211C62.9371 26.6773 62.9781 26.6971 63.0936 26.6971C63.197 26.6971 63.46 26.6865 63.4554 26.5877C63.4463 26.1225 63.5132 24.9309 63.694 24.069C63.7001 24.0341 63.7184 24.0037 63.7168 23.9717C63.7123 23.8988 63.5025 23.8729 63.4463 23.8653C63.3733 23.8562 63.3171 23.8745 63.2912 23.9109Z" fill="white"/>
<path d="M178.14 45.2217C180.684 45.2217 182.266 43.644 182.288 41.8382C182.312 40.3106 181.487 39.4366 179.929 38.4061C179.31 37.9987 179.14 37.8999 178.605 37.5123C177.746 36.8876 177.022 36.2765 177.048 35.2186C177.07 34.3249 177.781 33.3809 179.16 33.3809C180.714 33.3809 181.321 34.4586 181.552 35.3235C181.642 35.4345 182.025 35.3782 182.095 35.2718C182.095 34.5133 181.935 33.5025 181.774 33.0663C181.628 33.0663 181.377 33.0025 181.146 32.9599C180.502 32.8413 180.172 32.7061 179.115 32.7061C176.914 32.7061 175.531 34.1394 175.443 35.7293C175.356 37.222 176.307 38.1401 177.247 38.7845C178.143 39.4017 178.425 39.6008 179.088 40.075C180.316 40.9627 180.711 41.7425 180.629 42.6362C180.52 43.8249 179.664 44.6031 178.322 44.5681C176.44 44.518 175.516 42.8749 175.246 41.9522C175.173 41.8458 174.707 41.8701 174.709 42.0237C174.724 42.7989 174.97 44.1562 175.188 44.556C175.528 44.7505 176.635 45.2217 178.14 45.2217Z" fill="white"/>
<path d="M72.7031 24.402C71.4066 24.402 70.3547 24.3746 68.5611 24.3108C68.3757 24.402 68.3164 24.9583 68.4988 25.083L69.271 25.1453C71.098 25.3003 71.4066 26.533 71.4066 29.9622V44.7305C71.4066 46.4025 71.3123 51.0354 70.5995 52.4886C70.3851 52.9172 70.0128 53.2911 69.3668 53.2911C68.932 53.2911 68.4988 53.1984 68.0687 53.0738C67.6659 52.9506 67.2965 52.8853 66.9256 52.8853C66.2751 52.8853 65.813 53.7866 65.813 54.3095C65.813 54.9297 66.7691 54.9601 67.1415 54.9601C70.0127 54.9601 72.2091 52.9856 73.2306 50.5095C73.8158 49.0868 73.9389 46.9527 73.9389 44.5162V29.9622C73.9389 26.685 74.0012 25.3945 75.8252 25.1453L76.2873 25.083C76.4743 24.9583 76.4119 24.402 76.225 24.3108C74.9907 24.3746 73.9389 24.402 72.7031 24.402Z" fill="white"/>
<path d="M88.6512 23.9141C82.2885 23.9141 77.6494 28.6428 77.6494 34.8246C77.6479 40.3848 81.7914 45.2989 88.6512 45.2989C94.6157 45.2989 99.3748 40.7541 99.3748 34.513C99.3748 29.076 95.7876 23.9141 88.6512 23.9141ZM89.0509 44.3413C82.9664 44.3413 80.7396 38.4088 80.7396 33.8366C80.7396 27.0681 84.9105 24.8717 88.1222 24.8717C94.0289 24.8717 96.2801 30.3741 96.2801 35.4706C96.2801 41.5597 92.7582 44.3413 89.0509 44.3413Z" fill="white"/>
<path d="M109.572 33.6497L107.104 32.1069C105.959 31.3606 104.476 30.0944 104.476 28.3024C104.476 26.8827 105.126 24.8732 108.151 24.8732C111.123 24.8732 111.954 26.8827 112.355 28.3677C112.513 28.5486 113.006 28.4559 113.126 28.2704C113.126 26.9754 112.852 25.2441 112.576 24.5008C112.327 24.5008 111.895 24.4112 111.492 24.3169C110.693 24.0692 109.572 23.9126 108.616 23.9126C104.6 23.9126 102.31 26.2944 102.31 29.2296C102.31 31.7649 104.106 33.5266 105.654 34.5465L108.586 36.4602C110.845 37.9148 111.124 39.4257 111.124 40.7876C111.124 42.6436 109.857 44.3414 107.256 44.3414C103.676 44.3414 102.409 41.3136 101.945 39.7373C101.817 39.5519 101.354 39.6127 101.202 39.83C101.262 41.2832 101.665 43.4765 102.038 44.1575C102.623 44.4934 104.263 45.299 106.858 45.299C110.876 45.299 113.441 42.9795 113.441 39.5823C113.439 36.6472 111.519 34.8536 109.572 33.6497Z" fill="white"/>
<path d="M47.8391 33.6497L45.363 32.1069C44.2215 31.3606 42.7395 30.0944 42.7395 28.3024C42.7395 26.8827 43.3886 24.8732 46.4149 24.8732C49.3834 24.8732 50.2164 26.8827 50.6177 28.3677C50.7742 28.5486 51.2682 28.4559 51.3883 28.2704C51.3883 26.9754 51.1117 25.2441 50.8335 24.5008C50.5858 24.5008 50.1556 24.4112 49.7543 24.3169C48.9502 24.0692 47.8391 23.9126 46.8785 23.9126C42.8611 23.9126 40.575 26.2944 40.575 29.2296C40.575 31.7649 42.3656 33.5266 43.9145 34.5465L46.8481 36.4602C49.1038 37.9148 49.3834 39.4257 49.3834 40.7876C49.3834 42.6436 48.1158 44.3414 45.5196 44.3414C41.9339 44.3414 40.6678 41.3136 40.2042 39.7373C40.078 39.5519 39.6174 39.6127 39.4624 39.83C39.5232 41.2832 39.926 43.4765 40.2969 44.1575C40.8836 44.4934 42.5206 45.299 45.1183 45.299C49.1342 45.299 51.6999 42.9795 51.6999 39.5823C51.6999 36.6472 49.7832 34.8536 47.8391 33.6497Z" fill="white"/>
<path d="M120.142 44.8048H122.927C125.677 44.8048 128.425 44.8367 131.206 44.8975C131.605 44.06 132.381 41.6842 132.596 40.602C132.474 40.3269 132.042 40.2311 131.824 40.3846C131.021 41.9928 130.188 43.0781 129.627 43.3836C128.952 43.7256 128.054 43.8502 125.675 43.8502C122.953 43.8502 122.304 43.5067 121.937 43.1389C121.442 42.6129 121.348 41.5641 121.348 39.9225V35.5632C121.348 34.7621 121.442 34.7333 122.366 34.7333H124.161C125.36 34.7333 126.108 34.7621 126.535 34.8868C127.159 35.0403 127.371 35.5039 127.496 36.0602L127.774 37.2671C127.931 37.4495 128.454 37.4495 128.578 37.2321C128.578 36.5557 128.454 35.3777 128.454 34.2666C128.454 33.0917 128.578 31.8863 128.578 31.1461C128.454 30.9287 127.929 30.9287 127.774 31.1141L127.528 32.3803C127.371 33.154 127.16 33.3379 126.789 33.4625C126.415 33.5857 125.458 33.648 124.161 33.648H122.366C121.442 33.648 121.348 33.648 121.348 32.7846V26.6013C121.348 25.4263 121.348 25.3655 122.272 25.3655H124.499C125.861 25.3655 126.846 25.3974 127.496 25.5509C129.104 25.9537 129.384 27.036 129.841 28.4861C130 28.6715 130.497 28.6122 130.621 28.4253C130.497 27.0633 130.307 24.8411 130.123 24.3152C129.756 24.4079 127.931 24.4079 125.953 24.4079H120.142C118.873 24.4079 117.824 24.3745 116.497 24.3152C116.307 24.4079 116.248 24.9612 116.435 25.0858L116.928 25.1512C118.752 25.3655 118.815 25.8291 118.815 29.0439V40.1688C118.815 43.4155 118.657 43.8745 116.897 44.0326L115.879 44.1253C115.692 44.3093 115.754 44.8048 115.938 44.8975C117.765 44.8367 118.815 44.8048 120.142 44.8048Z" fill="white"/>
<path d="M150.779 25.1481C152.383 25.2727 152.599 25.8002 152.599 29.0454V40.1702C152.599 43.4139 152.537 43.7255 150.807 44.0311L150.281 44.1253C150.092 44.3153 150.153 44.8078 150.342 44.902C151.547 44.8701 152.597 44.8078 153.924 44.8078C155.13 44.8078 156.183 44.8397 157.849 44.902C158.036 44.8078 158.098 44.2499 157.911 44.1253L157.014 44.0311C155.285 43.8487 155.13 43.4154 155.13 40.1702V35.8139C155.13 34.8852 155.195 34.8244 156.675 34.8244H165.511C166.999 34.8244 167.06 34.8852 167.06 35.8139V40.1702C166.999 43.4139 167.06 43.7818 165.172 44.0311L164.589 44.1253C164.4 44.3153 164.462 44.8078 164.648 44.902C166.01 44.8397 167.122 44.8078 168.393 44.8078C169.594 44.8078 170.644 44.8397 172.131 44.902C172.315 44.8078 172.373 44.2499 172.19 44.1253L171.45 44.0311C169.655 43.8167 169.594 43.4154 169.594 40.1702V29.0454C169.594 25.8002 169.655 25.3351 171.45 25.1481L172.1 25.0888C172.281 24.9657 172.222 24.4094 172.032 24.3167C170.646 24.3759 169.594 24.4094 168.393 24.4094C167.122 24.4094 166.071 24.3759 164.648 24.3167C164.462 24.4094 164.4 24.9657 164.589 25.0888L165.172 25.1481C166.999 25.3351 167.06 25.8002 167.06 29.0454V32.5976C167.06 33.5552 166.999 33.5856 165.511 33.5856H156.675C155.195 33.5856 155.13 33.5552 155.13 32.5976V29.0454C155.13 25.8002 155.195 25.3351 156.986 25.1481L157.575 25.0888C157.759 24.9657 157.7 24.4094 157.512 24.3167C156.185 24.3759 155.131 24.4094 153.926 24.4094C152.599 24.4094 151.549 24.3471 150.032 24.3167C149.851 24.4094 149.787 24.9657 149.968 25.0888L150.779 25.1481Z" fill="white"/>
<path d="M60.8046 39.3225H55.2581C55.059 39.3225 54.9937 39.397 54.9937 39.5581V40.2284C54.9937 40.4078 55.1001 40.5066 55.2749 40.5066H60.7849C60.9612 40.5066 61.0661 40.4078 61.0661 40.2284V39.5581C61.0661 39.397 61.0037 39.3225 60.8046 39.3225Z" fill="white"/>
<path d="M142.023 44.1286L141.185 44.0343C139.199 43.8154 139.136 43.4172 139.136 40.1583V36.6806C139.155 36.0528 139.302 36.0239 140.158 36.0239H140.912C142.21 36.0042 144.242 35.7032 145.565 35.0739C146.892 34.4249 148.664 32.9991 148.664 30.143C148.664 28.0014 147.604 26.3886 146.179 25.4918C144.719 24.592 142.794 24.25 140.225 24.25C137.647 24.25 135.724 24.2834 134.082 24.4993C133.833 24.6239 133.804 25.089 134.022 25.2745L135.134 25.3991C136.531 25.5222 136.595 26.0801 136.595 28.7173V40.1598C136.595 43.4187 136.531 43.7866 134.736 44.0358L134.081 44.1301C133.896 44.3155 133.958 44.8141 134.145 44.9083C135.51 44.846 136.624 44.8141 137.927 44.8141C139.17 44.8141 140.191 44.846 141.958 44.9083C142.148 44.8126 142.207 44.2866 142.023 44.1286ZM140.815 25.2122C144.038 25.2122 145.809 27.1654 145.809 30.1734C145.811 31.9594 145.286 33.4156 143.941 34.3413C142.73 35.1712 140.27 35.0998 140.159 35.1013C140.053 35.1028 139.779 35.1013 139.643 35.0891C139.285 35.0618 139.176 34.9569 139.146 34.5799L139.138 26.3294C139.136 25.3368 139.173 25.2122 140.815 25.2122Z" fill="white"/>
<path d="M29.8043 60.0171C29.0383 55.9572 25.4571 52.6239 23.2121 50.1007C20.7695 47.3601 17.6763 44.8323 15.983 41.6464C14.3095 38.5 14.5724 34.9843 15.7915 31.7664C16.8418 29.0015 18.6779 26.4783 20.8303 24.288C23.7441 21.3134 25.6806 20.1916 25.2793 19.7873C24.7884 19.2948 22.1542 21.4 21.8654 21.6159C13.9492 27.5332 5.92819 37.0074 11.2497 46.5347C13.7972 51.0902 20.1311 55.258 22.9081 59.4958C14.7883 59.4517 7.20651 61.0781 7.20651 61.0781C7.20651 61.0781 5.52995 61.2347 5.66827 61.9339C5.75187 62.3564 7.40411 62.1527 7.40411 62.1527C7.40411 62.1527 16.5743 61.2757 24.1271 62.2591C24.1758 62.4963 24.2305 62.7334 24.2472 62.972C24.3795 64.9708 23.1939 67.1323 20.9427 68.6416C18.339 70.3896 13.934 70.9201 11.3181 69.8135C9.16123 68.9031 9.49563 70.078 11.1205 70.9003C14.58 72.6696 19.6203 72.9402 23.8779 70.6359C26.775 69.0687 28.9942 66.4239 29.7101 63.5314C31.2362 64.1029 32.4643 64.8462 33.1879 65.8175C37.4515 71.5494 26.8297 75.7719 26.8297 75.7719C26.8297 75.7719 25.3948 76.2979 25.6927 76.9575C26.0864 77.8255 29.7496 76.6535 29.7496 76.6535C34.4905 75.5759 44.4997 70.7377 40.4945 65.3098C38.2662 62.2956 34.2701 60.7361 29.8043 60.0171Z" fill="white"/>
<path d="M9.1764 32.4245C9.1764 32.5005 9.22504 32.5902 9.29344 32.6252C9.42416 32.7012 9.61264 32.724 9.9896 32.4139C11.0354 31.5475 12.7378 29.8101 10.2586 25.8551C7.78408 21.9046 9.13536 20.678 9.54424 20.2037C9.868 19.8237 9.48192 19.5851 8.97424 19.842C8.18688 20.2417 5.97376 21.4775 7.5652 25.3824C8.35408 27.3249 9.06392 28.7856 9.26912 29.801C9.61112 31.5019 9.19464 32.1555 9.1764 32.4139V32.4245V32.4245Z" fill="white"/>
<path d="M23.3641 33.3853C27.4681 32.4353 27.2037 29.9136 27.0775 29.0381C26.9954 28.4757 26.5759 28.2993 26.4543 28.7812C26.2977 29.3892 26.0606 31.3211 21.4033 31.4123C15.4753 31.5278 15.9177 35.5969 16.2673 37.1473C16.3752 37.62 16.4345 37.7705 16.6929 37.7705C16.9421 37.7705 17.0227 37.5865 17.1549 37.0545C17.3571 36.2444 17.766 35.0968 18.7661 34.5389C19.8484 33.9401 21.3182 33.8595 23.3641 33.3853Z" fill="white"/>
<path d="M7.54086 41.2969C7.69286 41.1798 7.7947 40.9822 7.7947 40.6995C7.7947 40.318 7.60622 39.783 7.10006 39.0944C4.66958 35.7641 3.4247 31.9291 3.4247 28.0911C3.4247 25.609 3.94454 23.1253 5.00094 20.7754C10.1218 9.37384 24.2639 7.25648 32.3564 6.2016C29.707 9.5836 28.0092 12.841 28.0092 17.0498C28.0092 18.696 28.2661 20.4881 28.8239 22.4884C29.4653 24.7806 29.8879 26.8873 29.8879 28.8663C29.8879 31.2588 29.2723 33.4613 27.6839 35.5786C25.3978 38.6171 22.6801 39.7237 19.3057 40.4472C18.5183 40.6174 18.1444 41.0826 18.1444 41.5036C18.1444 41.5431 18.1489 41.5887 18.155 41.6267C18.2356 42.0706 18.7645 42.481 20.0018 42.2879C28.5594 40.9868 33.431 36.8858 34.4844 30.1036C34.5406 29.7373 34.568 29.3527 34.568 28.9606C34.568 27.249 34.0785 25.3506 33.6408 23.6421L33.3049 22.2878C32.744 19.8907 32.2196 17.366 32.2196 14.7486C32.2196 13.9597 32.2667 13.1602 32.3761 12.353C32.671 10.1977 33.4037 8.16544 34.4403 6.63176L34.6105 6.384C35.027 5.7684 35.4207 5.18776 35.8037 4.73784C35.8053 4.73784 35.9193 4.61016 35.9193 4.61016C36.4741 3.97024 36.8784 3.50056 36.8784 3.00656C36.8784 2.98528 36.8784 2.964 36.8769 2.9412C36.8586 2.70104 36.7385 2.48064 36.5181 2.29064C36.0089 1.8544 35.6517 1.9988 35.0574 2.24656C34.457 2.49128 33.4553 2.9032 31.4292 3.21328L29.175 3.47776C27.0379 3.70728 24.1119 4.01432 21.4519 4.60408C16.9968 5.59208 6.56502 7.904 2.03998 18.5166C-0.934663 25.4904 0.453097 34.0617 5.57094 40.3469C6.48294 41.4641 7.18518 41.575 7.54086 41.2969Z" fill="white"/>
<path d="M87.4685 53.0674H83.331V49.2249H81.7639V58.3084H83.331V54.2241H87.4685V58.3084H89.0371V49.2249H87.4685V53.0674Z" fill="white"/>
<path d="M94.8252 54.2106H97.5733V53.0508H94.8252V50.3817H98.5857V49.2219H93.2581V58.3085H98.7483V57.1548H94.8252V54.2106Z" fill="white"/>
<path d="M105.163 49.1975L101.471 58.3084H102.874L103.758 56.0603H107L107.835 58.3084H109.454L106.101 49.1975H105.163ZM104.169 55.013L105.435 51.7313L106.619 55.013H104.169Z" fill="white"/>
<path d="M114.412 49.2249H112.846V58.3084H117.788V57.1517H114.412V49.2249Z" fill="white"/>
<path d="M118.511 50.3816H121.413V58.3114H122.979V50.3816H125.867V49.2249H118.511V50.3816Z" fill="white"/>
<path d="M135.102 53.0674H130.96V49.2249H129.395V58.3084H130.96V54.2241H135.102V58.3084H136.668V49.2249H135.102V53.0674Z" fill="white"/>
<path d="M151.676 58.0109C151.868 57.9167 152.041 57.8316 152.195 57.7358L151.691 56.7022C151.585 56.7569 151.457 56.8177 151.318 56.8846C151.175 56.9515 151.009 57.0153 150.816 57.0701C150.617 57.1233 150.389 57.1704 150.124 57.2099C149.861 57.2509 149.554 57.2753 149.2 57.2753C148.782 57.2753 148.382 57.1841 147.995 57.0077C147.61 56.8299 147.268 56.5867 146.981 56.2721C146.691 55.9605 146.455 55.5896 146.277 55.164C146.101 54.7369 146.013 54.2733 146.013 53.7777C146.013 53.267 146.098 52.7943 146.271 52.3626C146.441 51.934 146.674 51.5646 146.96 51.2485C147.245 50.9353 147.574 50.6921 147.946 50.5204C148.317 50.3501 148.708 50.2589 149.118 50.2589C149.472 50.2589 149.785 50.2878 150.065 50.3304C150.342 50.3775 150.582 50.4292 150.787 50.493C150.992 50.5553 151.163 50.6161 151.296 50.6769C151.433 50.7347 151.538 50.7833 151.611 50.8198L152.061 49.73C151.964 49.6768 151.83 49.6114 151.672 49.5248C151.512 49.4412 151.311 49.3667 151.067 49.3029C150.821 49.2345 150.529 49.1752 150.188 49.125C149.848 49.0764 149.449 49.0505 148.995 49.0505C148.306 49.0505 147.674 49.1752 147.104 49.4305C146.531 49.6859 146.042 50.0279 145.634 50.452C145.224 50.8791 144.906 51.3807 144.678 51.9568C144.453 52.5359 144.336 53.1424 144.336 53.7777C144.336 54.4192 144.452 55.0272 144.678 55.5926C144.905 56.1596 145.224 56.6551 145.634 57.0883C146.042 57.5215 146.531 57.8605 147.104 58.1128C147.674 58.359 148.306 58.4867 148.995 58.4867C149.422 58.4867 149.798 58.4639 150.126 58.4183C150.453 58.3712 150.745 58.3149 151.004 58.2465C151.264 58.1781 151.486 58.1021 151.676 58.0109Z" fill="white"/>
<path d="M159.497 49.1975H158.556L154.865 58.3084H156.27L157.151 56.0603H160.393L161.228 58.3084H162.848L159.497 49.1975ZM157.562 55.013L158.828 51.7313L160.012 55.013H157.562Z" fill="white"/>
<path d="M170.845 53.6101C171.052 53.4824 171.24 53.3213 171.412 53.1222C171.584 52.9185 171.727 52.6905 171.848 52.4321C171.964 52.1737 172.023 51.8864 172.023 51.5703C172.023 51.2845 171.958 51.0048 171.825 50.7221C171.695 50.4424 171.491 50.1901 171.219 49.9682C170.948 49.7463 170.609 49.5669 170.201 49.4301C169.79 49.2933 169.316 49.2234 168.77 49.2234H166.235V58.3099H167.802V54.2242H168.743L171.287 58.4483L173.057 58.3099L170.281 53.8822C170.454 53.826 170.641 53.7378 170.845 53.6101ZM169.448 53.0188C169.219 53.1085 168.947 53.1511 168.632 53.1511V53.1495H167.804V50.2722H168.644C168.96 50.2722 169.234 50.3102 169.465 50.3847C169.691 50.4637 169.884 50.5686 170.033 50.6993C170.184 50.8331 170.292 50.9851 170.359 51.1568C170.427 51.3316 170.46 51.5064 170.46 51.6904C170.46 51.8621 170.424 52.0369 170.351 52.2087C170.28 52.3804 170.169 52.5385 170.021 52.6799C169.869 52.8167 169.678 52.9307 169.448 53.0188Z" fill="white"/>
<path d="M177.992 54.2106H180.745V53.0508H177.992V50.3817H181.754V49.2219H176.427V58.3085H181.917V57.1548H177.992V54.2106Z" fill="white"/>
<path d="M120.363 62.9219H118.794V72.0069H123.739V70.8487H120.363V62.9219Z" fill="white"/>
<path d="M133.892 64.0678C133.499 63.6482 133.015 63.323 132.442 63.0934C131.871 62.8594 131.232 62.7454 130.523 62.7454C129.851 62.7454 129.232 62.8639 128.671 63.1071C128.107 63.3503 127.622 63.6802 127.213 64.1012C126.803 64.5222 126.485 65.0193 126.257 65.5954C126.032 66.173 125.918 66.7977 125.918 67.4695C125.918 68.1961 126.032 68.8482 126.263 69.4318C126.498 70.011 126.818 70.5065 127.227 70.9154C127.636 71.3273 128.121 71.6389 128.683 71.8547C129.247 72.0751 129.861 72.183 130.523 72.183C131.158 72.183 131.757 72.0721 132.313 71.8486C132.872 71.6267 133.362 71.3121 133.778 70.9017C134.196 70.4928 134.525 69.9988 134.766 69.4166C135.007 68.833 135.125 68.187 135.125 67.4695C135.125 66.7779 135.019 66.1426 134.804 65.5619C134.595 64.9874 134.289 64.4873 133.892 64.0678ZM133.246 68.8831C133.11 69.3163 132.913 69.6933 132.661 70.0079C132.406 70.3256 132.097 70.5749 131.735 70.7542C131.374 70.9351 130.968 71.0263 130.523 71.0263C130.07 71.0263 129.664 70.9351 129.303 70.7542C128.945 70.5749 128.638 70.3256 128.384 70.0079C128.13 69.6933 127.935 69.3163 127.8 68.8831C127.662 68.4484 127.593 67.9772 127.593 67.4695C127.593 66.9573 127.662 66.4785 127.8 66.0407C127.935 65.6014 128.13 65.223 128.384 64.9068C128.638 64.5906 128.945 64.3444 129.303 64.1711C129.662 63.9948 130.07 63.9051 130.523 63.9051C130.968 63.9051 131.374 63.9978 131.735 64.1757C132.097 64.355 132.406 64.6058 132.661 64.9266C132.913 65.2488 133.11 65.6288 133.246 66.062C133.383 66.4922 133.452 66.9634 133.452 67.471C133.452 67.9787 133.383 68.4484 133.246 68.8831Z" fill="white"/>
<path d="M145.125 69.5719L139.949 62.9219H138.627V72.0069H140V65.4542L145.125 72.0069H146.501V62.9219H145.125V69.5719Z" fill="white"/>
<path d="M156.735 64.1364C156.305 63.7412 155.786 63.4448 155.181 63.2335C154.578 63.0252 153.911 62.9219 153.174 62.9219H150.355V72.0069H153.174C153.83 72.0069 154.453 71.8914 155.046 71.6588C155.641 71.4293 156.165 71.1116 156.621 70.7058C157.074 70.303 157.436 69.8181 157.702 69.2633C157.971 68.704 158.107 68.096 158.107 67.4454C158.107 66.7447 157.986 66.1184 157.746 65.5591C157.504 65.0012 157.168 64.5255 156.735 64.1364ZM156.15 68.8347C155.966 69.2512 155.717 69.6114 155.414 69.9108C155.112 70.2103 154.763 70.4428 154.377 70.604C153.991 70.7681 153.602 70.8487 153.212 70.8487V70.8517H151.918V64.0816H153.186C153.593 64.0816 153.993 64.1485 154.385 64.2808C154.776 64.4115 155.121 64.6106 155.425 64.8842C155.73 65.1563 155.975 65.5044 156.154 65.9315C156.335 66.3586 156.428 66.8617 156.428 67.4439C156.429 67.9531 156.335 68.4182 156.15 68.8347Z" fill="white"/>
<path d="M169.295 64.0678C168.899 63.6482 168.415 63.323 167.843 63.0934C167.27 62.8594 166.632 62.7454 165.922 62.7454C165.248 62.7454 164.634 62.8639 164.07 63.1071C163.506 63.3503 163.022 63.6802 162.61 64.1012C162.201 64.5222 161.885 65.0193 161.657 65.5954C161.433 66.173 161.318 66.7977 161.318 67.4695C161.318 68.1961 161.432 68.8482 161.666 69.4318C161.897 70.011 162.217 70.5065 162.625 70.9154C163.035 71.3273 163.522 71.6389 164.083 71.8547C164.646 72.0751 165.257 72.183 165.922 72.183C166.559 72.183 167.156 72.0721 167.712 71.8486C168.272 71.6267 168.758 71.3121 169.179 70.9017C169.594 70.4928 169.925 69.9988 170.166 69.4166C170.403 68.833 170.524 68.187 170.524 67.4695C170.524 66.7779 170.419 66.1426 170.204 65.5619C169.992 64.9874 169.688 64.4873 169.295 64.0678ZM168.647 68.8831C168.509 69.3163 168.313 69.6933 168.06 70.0079C167.805 70.3256 167.496 70.5749 167.133 70.7542C166.773 70.9351 166.367 71.0263 165.922 71.0263C165.469 71.0263 165.061 70.9351 164.703 70.7542C164.344 70.5749 164.037 70.3256 163.785 70.0079C163.531 69.6933 163.333 69.3163 163.198 68.8831C163.061 68.4484 162.993 67.9772 162.993 67.4695C162.993 66.9573 163.061 66.4785 163.198 66.0407C163.333 65.6014 163.531 65.223 163.785 64.9068C164.038 64.5906 164.344 64.3444 164.703 64.1711C165.06 63.9948 165.469 63.9051 165.922 63.9051C166.367 63.9051 166.773 63.9978 167.133 64.1757C167.496 64.355 167.805 64.6058 168.06 64.9266C168.313 65.2488 168.509 65.6288 168.647 66.062C168.782 66.4922 168.852 66.9634 168.852 67.471C168.852 67.9787 168.782 68.4484 168.647 68.8831Z" fill="white"/>
<path d="M180.524 69.5719L175.346 62.9219H174.026V72.0069H175.402V65.4542L180.524 72.0069H181.897V62.9219H180.524V69.5719Z" fill="white"/>
</g>
<defs>
<clipPath id="clip0_55_39">
<rect width="182.78" height="82.08" fill="white"/>
</clipPath>
</defs>
</svg>
