<svg width="152" height="64" viewBox="0 0 152 64" fill="none" xmlns="http://www.w3.org/2000/svg">
<path d="M148.575 20.6353C148.559 21.9009 147.454 22.7207 146.39 23.0279C146.239 23.0707 146.179 22.7811 146.268 22.6577C146.917 22.3593 147.603 21.8681 147.603 21.1453C147.603 20.5963 147.051 20.3193 146.71 20.2311C146.475 20.1656 146.269 19.9969 146.25 19.667C146.228 19.332 146.539 18.9051 147.214 18.9454C147.933 18.987 148.59 19.5788 148.575 20.6353Z" fill="#0071CE"/>
<path d="M48.9085 26.3046C48.9085 27.7742 48.9803 27.9807 49.7472 28.055L50.198 28.0965C50.2823 28.1532 50.2521 28.4831 50.1703 28.5259C49.3706 28.497 48.4678 28.4831 47.9086 28.4831C47.3483 28.4831 46.8584 28.497 45.9593 28.5259C45.8762 28.4831 45.8498 28.1671 45.9593 28.0965L46.463 28.055C47.2463 27.987 47.3332 27.7742 47.3332 26.3046V20.1972C47.3332 19.764 47.3332 19.7489 46.9126 19.7489H46.3006C45.6445 19.7489 45.0312 19.793 44.5905 20.1368C44.3399 20.3319 44.1409 20.6316 44.0188 20.9036C43.9949 20.9578 43.9772 21.0182 43.9432 21.0661C43.9218 21.1014 43.8916 21.1253 43.8261 21.1177C43.7581 21.1114 43.6272 21.0711 43.568 21.0397C43.5163 21.0107 43.5025 20.9716 43.5352 20.8772C43.6989 20.3634 43.9243 19.4127 44.0125 18.9191C44.0301 18.8385 44.0465 18.7868 44.1044 18.773C44.1586 18.7604 44.3726 18.778 44.3789 18.8019C44.4772 19.1646 44.7907 19.2389 45.4934 19.2389H51.3578C51.9496 19.2389 52.2141 19.1243 52.4344 18.8095C52.4558 18.7793 52.5024 18.7642 52.5629 18.7717C52.6095 18.778 52.7832 18.7994 52.787 18.8599C52.7883 18.8863 52.7732 18.9115 52.7681 18.9405C52.6183 19.6545 52.5629 20.6417 52.5704 21.0271C52.5742 21.1089 52.3563 21.1177 52.2707 21.1177C52.175 21.1177 52.141 21.1014 52.1297 21.0548C52.1183 21.0145 52.1183 20.9691 52.1108 20.9251C52.0655 20.6039 51.9723 20.3093 51.7229 20.0927C51.4195 19.832 50.9586 19.7565 50.1111 19.7489H49.314C48.8934 19.7489 48.9085 19.764 48.9085 20.2249V26.3046V26.3046Z" fill="#0071CE"/>
<path d="M147.581 36.4643C146.335 36.4643 145.418 36.0752 145.136 35.9128C144.955 35.5816 144.751 34.4558 144.738 33.8148C144.736 33.6877 145.122 33.6675 145.183 33.7544C145.408 34.5188 146.172 35.88 147.731 35.9228C148.843 35.9518 149.552 35.3071 149.643 34.3223C149.711 33.5819 149.383 32.9359 148.366 32.2005C147.818 31.8076 147.583 31.6426 146.841 31.1314C146.063 30.5974 145.276 29.8368 145.348 28.6002C145.421 27.2831 146.565 26.0956 148.39 26.0956C149.265 26.0956 149.538 26.2077 150.072 26.3059C150.264 26.3411 150.471 26.394 150.592 26.394C150.726 26.7554 150.858 27.5928 150.858 28.2212C150.799 28.3094 150.482 28.356 150.408 28.264C150.216 27.5475 149.715 26.6547 148.425 26.6547C147.284 26.6547 146.694 27.4367 146.677 28.1771C146.656 29.0536 147.254 29.5598 147.967 30.0774C148.41 30.3985 148.551 30.4803 149.064 30.8178C150.353 31.6728 151.037 32.3957 151.018 33.6625C151 35.1572 149.689 36.4643 147.581 36.4643Z" fill="#0071CE"/>
<path d="M59.1575 23.8226C59.1575 20.9817 58.9019 19.9604 57.3883 19.832L56.7485 19.7803C56.5974 19.6771 56.6465 19.2162 56.8002 19.1406C58.2861 19.1935 59.1575 19.2162 60.2317 19.2162C61.2554 19.2162 62.1268 19.1935 63.1494 19.1406C63.3043 19.2162 63.3559 19.6771 63.201 19.7803L62.8182 19.832C61.3071 20.0385 61.2554 21.1076 61.2554 23.8226V35.88C61.2554 37.8998 61.1534 39.6678 60.6686 40.8465C59.8224 42.8966 58.0028 44.5323 55.624 44.5323C55.3155 44.5323 54.5234 44.5084 54.5234 43.9946C54.5234 43.5614 54.9063 42.8147 55.4452 42.8147C55.7525 42.8147 56.0585 42.8688 56.3922 42.9708C56.7485 43.0741 57.1074 43.1497 57.4676 43.1497C58.0028 43.1497 58.3113 42.8411 58.4888 42.4848C59.0794 41.2809 59.1575 37.4414 59.1575 36.0575V23.8226V23.8226Z" fill="#0071CE"/>
<path d="M73.4439 36.5285C78.3852 36.5285 82.3279 32.7633 82.3279 27.5928C82.3279 23.0885 79.3561 18.812 73.4439 18.812C68.1726 18.812 64.3293 22.7296 64.3293 27.851C64.3281 32.4573 67.7608 36.5285 73.4439 36.5285ZM73.775 35.7352C68.7342 35.7352 66.8894 30.8203 66.8894 27.0325C66.8894 21.425 70.3448 19.6053 73.0056 19.6053C77.8991 19.6053 79.7641 24.1639 79.7641 28.3862C79.7641 33.4308 76.8464 35.7352 73.775 35.7352Z" fill="#0071CE"/>
<path d="M88.5259 36.5286C86.3764 36.5286 85.0176 35.8612 84.5328 35.5829C84.2243 35.0187 83.8906 33.2016 83.8402 31.9978C83.9674 31.8177 84.3515 31.7673 84.456 31.9209C84.8401 33.2268 85.8903 35.7352 88.8571 35.7352C91.0104 35.7352 92.0607 34.3286 92.0607 32.7911C92.0607 31.6628 91.8302 30.4111 89.959 29.206L87.5298 27.6206C86.2467 26.7756 84.7595 25.3161 84.7595 23.2157C84.7595 20.784 86.6584 18.8108 89.9841 18.8108C90.7762 18.8108 91.703 18.9405 92.3654 19.1458C92.6991 19.2238 93.0567 19.2981 93.2632 19.2981C93.4937 19.9139 93.7204 21.3482 93.7204 22.4211C93.6196 22.5747 93.2116 22.6515 93.0819 22.5017C92.7507 21.2714 92.0607 19.6066 89.6001 19.6066C87.0929 19.6066 86.5552 21.2714 86.5552 22.4475C86.5552 23.9322 87.7829 24.9812 88.7312 25.5995L90.7762 26.8776C92.3893 27.8749 93.9798 29.3609 93.9798 31.7925C93.9798 34.6069 91.8541 36.5286 88.5259 36.5286Z" fill="#0071CE"/>
<path d="M37.3786 36.5286C35.2265 36.5286 33.8703 35.8612 33.3842 35.5829C33.0769 35.0187 32.7432 33.2016 32.6929 31.9978C32.8213 31.8177 33.2029 31.7673 33.3074 31.9209C33.6915 33.2268 34.7404 35.7352 37.711 35.7352C39.8618 35.7352 40.9121 34.3286 40.9121 32.7911C40.9121 31.6628 40.6804 30.4111 38.8116 29.206L36.3812 27.6206C35.0981 26.7756 33.6146 25.3161 33.6146 23.2157C33.6146 20.784 35.5086 18.8108 38.8368 18.8108C39.6326 18.8108 40.5532 18.9405 41.2193 19.1458C41.5518 19.2238 41.9081 19.2981 42.1134 19.2981C42.3438 19.9139 42.573 21.3482 42.573 22.4211C42.4735 22.5747 42.0643 22.6515 41.9346 22.5017C41.6021 21.2714 40.9121 19.6066 38.4527 19.6066C35.9455 19.6066 35.4078 21.2714 35.4078 22.4475C35.4078 23.9322 36.6356 24.9812 37.5813 25.5995L39.6326 26.8776C41.2432 27.8749 42.8312 29.3609 42.8312 31.7925C42.8312 34.6069 40.7055 36.5286 37.3786 36.5286Z" fill="#0071CE"/>
<path d="M98.4338 23.062C98.4338 20.3986 98.3809 20.0146 96.8698 19.837L96.4618 19.7829C96.3069 19.6796 96.3561 19.2212 96.5122 19.1444C97.6115 19.1935 98.4817 19.2212 99.5332 19.2212H104.347C105.986 19.2212 107.498 19.2212 107.803 19.1444C107.955 19.5801 108.111 21.4212 108.216 22.5494C108.111 22.7043 107.701 22.7534 107.57 22.5998C107.191 21.3985 106.959 20.5019 105.627 20.1682C105.088 20.041 104.272 20.0146 103.143 20.0146H101.3C100.533 20.0146 100.533 20.0649 100.533 21.0383V26.161C100.533 26.8763 100.61 26.8763 101.377 26.8763H102.864C103.937 26.8763 104.73 26.8246 105.04 26.7226C105.347 26.6194 105.523 26.467 105.653 25.826L105.857 24.7758C105.986 24.6222 106.42 24.6222 106.523 24.8023C106.523 25.4155 106.42 26.4141 106.42 27.3875C106.42 28.308 106.523 29.284 106.523 29.8443C106.42 30.0244 105.986 30.0244 105.857 29.8733L105.627 28.8734C105.523 28.4126 105.347 28.0285 104.831 27.9013C104.477 27.798 103.857 27.7741 102.864 27.7741H101.377C100.61 27.7741 100.533 27.798 100.533 28.4617V32.0732C100.533 33.4332 100.61 34.3021 101.02 34.7378C101.325 35.0426 101.863 35.3271 104.118 35.3271C106.088 35.3271 106.832 35.2239 107.391 34.9406C107.856 34.6874 108.546 33.7883 109.211 32.456C109.392 32.3289 109.751 32.4082 109.852 32.6361C109.674 33.5327 109.029 35.5022 108.699 36.1948C106.395 36.1457 104.118 36.1192 101.84 36.1192H99.5332C98.4338 36.1192 97.5624 36.1457 96.0513 36.1948C95.8989 36.1192 95.8461 35.7074 96.0009 35.5563L96.8446 35.4795C98.3029 35.3486 98.4338 34.9683 98.4338 32.2785V23.062V23.062Z" fill="#0071CE"/>
<path d="M129.801 27.8509C128.575 27.8509 128.521 27.9013 128.521 28.6707V32.2797C128.521 34.967 128.65 35.3259 130.083 35.4782L130.824 35.555C130.979 35.6583 130.929 36.1204 130.773 36.1985C129.394 36.1469 128.521 36.1204 127.523 36.1204C126.422 36.1204 125.552 36.1721 124.553 36.1985C124.397 36.1204 124.347 35.7124 124.503 35.555L124.939 35.4782C126.37 35.2251 126.422 34.967 126.422 32.2797V23.0632C126.422 20.3747 126.243 19.9377 124.915 19.8344L124.244 19.7853C124.094 19.6833 124.147 19.2224 124.296 19.1456C125.552 19.1708 126.422 19.2224 127.523 19.2224C128.521 19.2224 129.394 19.1947 130.493 19.1456C130.649 19.2224 130.699 19.6833 130.546 19.7853L130.058 19.8344C128.575 19.9893 128.521 20.3747 128.521 23.0632V26.0061C128.521 26.7994 128.575 26.8246 129.801 26.8246H137.122C138.354 26.8246 138.404 26.7994 138.404 26.0061V23.0632C138.404 20.3747 138.354 19.9893 136.84 19.8344L136.356 19.7853C136.2 19.6833 136.252 19.2224 136.405 19.1456C137.584 19.1947 138.456 19.2224 139.508 19.2224C140.503 19.2224 141.373 19.1947 142.523 19.1456C142.679 19.2224 142.729 19.6833 142.578 19.7853L142.041 19.8344C140.553 19.9893 140.503 20.3747 140.503 23.0632V32.2797C140.503 34.967 140.553 35.3007 142.041 35.4782L142.654 35.555C142.806 35.6583 142.757 36.1204 142.605 36.1985C141.373 36.1469 140.503 36.1204 139.508 36.1204C138.456 36.1204 137.534 36.1469 136.405 36.1985C136.252 36.1204 136.2 35.7124 136.356 35.555L136.84 35.4782C138.404 35.273 138.354 34.967 138.404 32.2797V28.6707C138.404 27.9013 138.354 27.8509 137.122 27.8509H129.801Z" fill="#0071CE"/>
<path d="M45.793 32.558C45.6482 32.558 45.5601 32.4761 45.5601 32.3275V31.7722C45.5601 31.6387 45.6142 31.577 45.7792 31.577H50.3742C50.5392 31.577 50.5908 31.6387 50.5908 31.7722V32.3275C50.5908 32.4761 50.5039 32.558 50.3578 32.558H45.793Z" fill="#0071CE"/>
<path d="M119.248 27.4506C118.246 28.1381 116.207 28.0789 116.115 28.0802C116.026 28.0814 115.8 28.0802 115.687 28.0701C115.391 28.0474 115.3 27.9606 115.275 27.6483L115.269 20.813C115.269 19.9907 115.298 19.8874 116.658 19.8874C119.33 19.8874 120.797 21.5056 120.797 23.9977C120.798 25.4773 120.364 26.6837 119.248 27.4506ZM121.103 20.1191C119.894 19.3737 118.3 19.0903 116.17 19.0903C114.035 19.0903 112.442 19.118 111.082 19.2968C110.875 19.4001 110.851 19.7854 111.031 19.9391L111.953 20.0423C113.11 20.1443 113.163 20.6065 113.163 22.7913V32.271C113.163 34.9696 113.11 35.2756 111.623 35.4821L111.082 35.5589C110.928 35.7138 110.98 36.1269 111.135 36.2037C112.265 36.152 113.189 36.1268 114.268 36.1268C115.298 36.1268 116.145 36.152 117.609 36.2037C117.762 36.1269 117.813 35.6899 117.659 35.5589L116.966 35.4821C115.32 35.3008 115.269 34.9696 115.269 32.271V29.3898C115.284 28.8697 115.406 28.8458 116.115 28.8458H116.74V28.8446C117.814 28.8282 119.499 28.5789 120.593 28.0575C121.694 27.5198 123.161 26.3386 123.161 23.9725C123.162 22.1982 122.284 20.8621 121.103 20.1191Z" fill="#0071CE"/>
<g opacity="0.2">
<g opacity="0.2">
<path opacity="0.2" d="M24.6463 62.5057C28.5739 61.6141 36.8661 57.6059 33.548 53.1091C27.53 44.9642 5.97018 49.6008 5.97018 49.6008C5.97018 49.6008 4.58121 49.7305 4.69581 50.311C4.76507 50.6624 6.13388 50.4911 6.13388 50.4911C6.13388 50.4911 23.9637 48.7848 27.4947 53.5297C31.0269 58.2771 22.2272 61.7766 22.2272 61.7766C22.2272 61.7766 21.0385 62.211 21.2853 62.7588C21.6114 63.4778 24.6463 62.5057 24.6463 62.5057Z" fill="#0071CE"/>
</g>
</g>
<path d="M19.2302 40.5065C17.2066 38.236 14.644 36.1419 13.2412 33.5025C11.8547 30.8958 12.0726 27.9831 13.0825 25.3173C13.9526 23.0267 15.4738 20.9363 17.2569 19.1217C19.6709 16.6574 21.2752 15.728 20.9428 15.3931C20.5361 14.9851 18.3538 16.7291 18.1145 16.908C11.5563 21.8103 4.91116 29.6592 9.31983 37.5523C12.0033 42.3526 19.7818 46.6315 20.0878 51.1699C20.1973 52.8271 19.2151 54.6177 17.3501 55.8682C15.193 57.3176 11.5437 57.7558 9.3765 56.8403C7.58961 56.086 7.86665 57.0582 9.21279 57.7407C12.0789 59.2065 16.2546 59.4294 19.7818 57.5216C22.4929 56.0558 24.4939 53.4504 24.7861 50.6977C25.2356 46.4288 21.4427 42.9923 19.2302 40.5065Z" fill="#0071CE"/>
<path d="M6.26737 20.0283C6.92093 21.6377 7.509 22.8478 7.679 23.689C7.96234 25.0981 7.6173 25.6396 7.60219 25.8537V25.8625C7.60219 25.9255 7.64248 25.9997 7.69915 26.0287C7.80745 26.0917 7.9636 26.1106 8.27589 25.8537C9.14226 25.1359 10.5526 23.6966 8.49878 20.42C6.44871 17.1472 7.56819 16.1309 7.90693 15.738C8.17515 15.4232 7.8553 15.2255 7.43471 15.4383C6.78241 15.7695 4.94893 16.7933 6.26737 20.0283Z" fill="#0071CE"/>
<path d="M19.3561 26.6583C17.6611 27.0512 16.4434 27.118 15.5468 27.6141C14.7182 28.0763 14.3795 29.027 14.212 29.6982C14.1025 30.1389 14.0357 30.2913 13.8292 30.2913C13.6151 30.2913 13.566 30.1666 13.4766 29.775C13.187 28.4905 12.8205 25.1195 17.7316 25.0238C21.59 24.9483 21.7865 23.3477 21.9162 22.844C22.0169 22.4448 22.3645 22.5909 22.4325 23.0568C22.537 23.7822 22.7561 25.8713 19.3561 26.6583Z" fill="#0071CE"/>
<path d="M30.5509 1.43552C30.5358 1.23656 30.4363 1.05396 30.2537 0.896556C29.8319 0.535149 29.536 0.654778 29.0436 0.860038C28.5462 1.06278 27.7163 1.40404 26.0377 1.66093L24.1703 1.88004C22.3997 2.07019 19.9757 2.32456 17.772 2.81315C14.0811 3.63293 5.43877 5.54826 1.68996 14.3404C-0.774412 20.1179 0.375291 27.2189 4.61522 32.4259C5.37077 33.3514 5.95255 33.4434 6.24722 33.2129C6.37314 33.116 6.45751 32.9523 6.45751 32.718C6.45751 32.402 6.30137 31.9587 5.88203 31.3883C3.86848 28.6292 2.83714 25.4521 2.83714 22.2725C2.83714 20.2161 3.26781 18.1585 4.143 16.2117C8.38544 6.76596 20.1016 5.01182 26.8059 4.13789C24.611 6.93974 23.2044 9.63833 23.2044 13.1252C23.2044 14.489 23.4172 15.9737 23.8794 17.6309C24.4108 19.5298 24.7608 21.2751 24.7608 22.9147C24.7608 24.8968 24.2508 26.7214 22.9349 28.4756C21.041 30.9929 18.7894 31.9096 15.9939 32.509C15.3416 32.65 15.0318 33.0354 15.0318 33.3842C15.0318 33.4169 15.0356 33.4547 15.0406 33.4862C15.1074 33.8539 15.5456 34.1926 16.5706 34.034C23.6603 32.9548 27.6962 29.5573 28.5688 23.9385C28.6154 23.635 28.6381 23.3164 28.6381 22.9915C28.6381 21.5736 28.2326 20.0008 27.87 18.5854L27.5917 17.4634C27.127 15.4775 26.6926 13.3859 26.6926 11.2174C26.6926 10.5639 26.7316 9.90152 26.8223 9.23285C27.0666 7.44722 27.6735 5.76359 28.5323 4.493L28.6734 4.28774C29.0184 3.77774 29.3446 3.2967 29.6619 2.92396C29.6631 2.92396 29.7576 2.81819 29.7576 2.81819C30.2172 2.28804 30.5522 1.89893 30.5522 1.48967C30.5522 1.47204 30.5522 1.45441 30.5509 1.43552Z" fill="#ABC380"/>
<path d="M72.4642 43.9228H69.0365V47.3065H67.7382V39.7811H69.0365V42.9645H72.4642V39.7811H73.7637V47.3065H72.4642V43.9228Z" fill="#0071CE"/>
<path d="M81.8091 47.3078H77.2606V39.7787H81.6743V40.7408H78.5589V42.952H80.8369V43.9116H78.5589V46.3495H81.8091V47.3078Z" fill="#0071CE"/>
<path d="M87.3486 41.8577L86.2996 44.5777H88.3308L87.3486 41.8577ZM85.2267 47.3078H84.0645L87.1219 39.7585H87.9002L90.6781 47.3078H89.3357L88.6444 45.4454H85.9596L85.2267 47.3078Z" fill="#0071CE"/>
<path d="M94.7857 46.3482H97.5825V47.3065H93.4886V39.7811H94.7857V46.3482Z" fill="#0071CE"/>
<path d="M98.182 39.7811H104.276V40.7394H101.883V47.309H100.586V40.7394H98.182V39.7811Z" fill="#0071CE"/>
<path d="M111.927 43.9228H108.495V47.3065H107.198V39.7811H108.495V42.9645H111.927V39.7811H113.224V47.3065H111.927V43.9228Z" fill="#0071CE"/>
<path d="M126.087 46.8331C125.96 46.9111 125.816 46.9829 125.658 47.0597C125.5 47.1353 125.315 47.1995 125.1 47.2549C124.885 47.3116 124.643 47.3594 124.371 47.3972C124.1 47.4362 123.789 47.4539 123.435 47.4539C122.863 47.4539 122.341 47.3494 121.867 47.1441C121.394 46.9363 120.987 46.6555 120.65 46.2966C120.311 45.9377 120.047 45.5259 119.858 45.0562C119.671 44.5878 119.576 44.0841 119.576 43.5527C119.576 43.0263 119.671 42.5226 119.858 42.0428C120.047 41.5668 120.311 41.15 120.65 40.7962C120.987 40.4448 121.394 40.1615 121.867 39.9512C122.341 39.7396 122.863 39.6351 123.435 39.6351C123.812 39.6351 124.142 39.6565 124.424 39.6968C124.706 39.7384 124.948 39.7875 125.152 39.8442C125.354 39.8996 125.521 39.96 125.653 40.0293C125.784 40.0998 125.893 40.1552 125.975 40.1993L125.602 41.1022C125.542 41.0719 125.455 41.0316 125.342 40.9838C125.231 40.9334 125.09 40.8831 124.92 40.8314C124.751 40.7785 124.551 40.7345 124.322 40.6954C124.091 40.6602 123.832 40.6375 123.537 40.6375C123.198 40.6375 122.875 40.7118 122.568 40.8541C122.259 40.9964 121.986 41.1979 121.75 41.4573C121.512 41.7192 121.321 42.0252 121.179 42.3803C121.035 42.7379 120.965 43.1296 120.965 43.5527C120.965 43.9632 121.038 44.3473 121.185 44.7011C121.331 45.0537 121.526 45.361 121.767 45.6191C122.006 45.8798 122.288 46.0825 122.607 46.2299C122.928 46.3759 123.259 46.4502 123.605 46.4502C123.899 46.4502 124.154 46.4314 124.371 46.3974C124.59 46.3646 124.78 46.3256 124.944 46.2815C125.104 46.2362 125.242 46.1833 125.361 46.1279C125.475 46.0725 125.581 46.0221 125.67 45.9755L126.087 46.8331Z" fill="#0071CE"/>
<path d="M131.583 41.8577L130.534 44.5777H132.564L131.583 41.8577ZM129.462 47.3078H128.3L131.357 39.7585H132.135L134.913 47.3078H133.57L132.88 45.4454H130.194L129.462 47.3078Z" fill="#0071CE"/>
<path d="M139.704 43.0338C139.966 43.0338 140.19 42.9973 140.381 42.9243C140.571 42.8512 140.73 42.7568 140.855 42.6422C140.977 42.5251 141.069 42.3954 141.128 42.2518C141.188 42.1095 141.218 41.966 141.218 41.8237C141.218 41.6726 141.191 41.5265 141.134 41.3817C141.079 41.2394 140.989 41.1135 140.865 41.0039C140.742 40.8944 140.583 40.8075 140.394 40.7432C140.202 40.6803 139.976 40.6488 139.714 40.6488H139.017V43.0326H139.704V43.0338ZM141.906 47.4211L139.797 43.9216H139.017V47.3078H137.719V39.7799H139.819C140.272 39.7799 140.666 39.8378 141.004 39.9499C141.343 40.0632 141.625 40.2118 141.849 40.3957C142.075 40.5795 142.244 40.7886 142.352 41.0203C142.461 41.2545 142.516 41.4862 142.516 41.7229C142.516 41.9849 142.466 42.2229 142.369 42.4369C142.27 42.651 142.152 42.8412 142.009 43.0087C141.866 43.1736 141.71 43.3084 141.54 43.4129C141.37 43.5199 141.213 43.5929 141.072 43.6383L143.372 47.3065L141.906 47.4211Z" fill="#0071CE"/>
<path d="M150.71 47.3078H146.164V39.7787H150.576V40.7408H147.459V42.952H149.74V43.9116H147.459V46.3495H150.71V47.3078Z" fill="#0071CE"/>
<path d="M99.7145 57.6967H102.513V58.655H98.4175V51.1296H99.7145V57.6967Z" fill="#0071CE"/>
<path d="M108.133 51.9431C107.757 51.9431 107.42 52.0174 107.123 52.1634C106.826 52.307 106.571 52.511 106.361 52.7729C106.151 53.0349 105.989 53.3484 105.877 53.7123C105.763 54.075 105.707 54.4729 105.707 54.8973C105.707 55.3179 105.763 55.707 105.877 56.0672C105.989 56.4273 106.151 56.7383 106.361 56.999C106.571 57.2634 106.826 57.4687 107.123 57.6186C107.42 57.7684 107.757 57.844 108.133 57.844C108.502 57.844 108.837 57.7684 109.138 57.6186C109.437 57.4687 109.694 57.2634 109.906 56.999C110.115 56.7383 110.276 56.4273 110.389 56.0672C110.503 55.707 110.559 55.3179 110.559 54.8973C110.559 54.4767 110.503 54.0863 110.389 53.73C110.276 53.3711 110.115 53.0563 109.906 52.7893C109.694 52.5236 109.437 52.3158 109.138 52.166C108.837 52.0186 108.502 51.9431 108.133 51.9431ZM108.133 50.9835C108.721 50.9835 109.25 51.078 109.723 51.2719C110.198 51.4608 110.598 51.7303 110.924 52.0791C111.253 52.4254 111.506 52.8397 111.681 53.3195C111.858 53.7992 111.947 54.3256 111.947 54.8986C111.947 55.4942 111.847 56.0294 111.648 56.5129C111.448 56.994 111.176 57.4045 110.83 57.742C110.485 58.0832 110.079 58.3426 109.616 58.5265C109.154 58.7116 108.659 58.8035 108.133 58.8035C107.585 58.8035 107.076 58.7141 106.609 58.5315C106.143 58.3527 105.74 58.0946 105.403 57.7533C105.064 57.4158 104.798 57.0053 104.605 56.5255C104.414 56.042 104.32 55.5005 104.32 54.8986C104.32 54.342 104.413 53.8244 104.6 53.3459C104.789 52.8686 105.052 52.4569 105.391 52.108C105.73 51.758 106.132 51.4847 106.599 51.2832C107.065 51.0817 107.576 50.9835 108.133 50.9835Z" fill="#0071CE"/>
<path d="M121.37 51.1296V58.655H120.23L115.985 53.2276V58.655H114.847V51.1296H115.943L120.23 56.6376V51.1296H121.37Z" fill="#0071CE"/>
<path d="M126.931 57.6967C127.255 57.6967 127.577 57.6287 127.897 57.4927C128.217 57.3592 128.504 57.1665 128.754 56.9185C129.006 56.6704 129.211 56.3732 129.364 56.0269C129.517 55.6819 129.596 55.2965 129.596 54.8759C129.596 54.3936 129.519 53.9768 129.369 53.623C129.22 53.2691 129.018 52.9795 128.764 52.7541C128.514 52.5274 128.227 52.3625 127.903 52.2542C127.578 52.1446 127.247 52.0892 126.91 52.0892H125.859V57.6979H126.931V57.6967ZM124.562 51.1296H126.898C127.509 51.1296 128.062 51.2153 128.562 51.3878C129.063 51.5616 129.492 51.8084 129.849 52.1345C130.208 52.4569 130.486 52.8498 130.685 53.3132C130.884 53.7766 130.984 54.2954 130.984 54.8759C130.984 55.4162 130.872 55.9186 130.65 56.3833C130.429 56.8429 130.129 57.2446 129.754 57.577C129.376 57.9133 128.942 58.1765 128.45 58.3666C127.957 58.5593 127.441 58.655 126.898 58.655H124.562V51.1296Z" fill="#0071CE"/>
<path d="M137.46 51.9431C137.084 51.9431 136.747 52.0174 136.451 52.1634C136.152 52.307 135.899 52.511 135.689 52.7729C135.479 53.0349 135.315 53.3484 135.203 53.7123C135.091 54.075 135.034 54.4729 135.034 54.8973C135.034 55.3179 135.091 55.707 135.203 56.0672C135.315 56.4273 135.479 56.7383 135.689 56.999C135.899 57.2634 136.152 57.4687 136.451 57.6186C136.747 57.7684 137.084 57.844 137.46 57.844C137.828 57.844 138.165 57.7684 138.463 57.6186C138.764 57.4687 139.02 57.2634 139.231 56.999C139.442 56.7383 139.604 56.4273 139.717 56.0672C139.829 55.707 139.887 55.3179 139.887 54.8973C139.887 54.4767 139.829 54.0863 139.717 53.73C139.604 53.3711 139.442 53.0563 139.231 52.7893C139.02 52.5236 138.764 52.3158 138.463 52.166C138.165 52.0186 137.828 51.9431 137.46 51.9431ZM137.46 50.9835C138.048 50.9835 138.576 51.078 139.051 51.2719C139.525 51.4608 139.926 51.7303 140.254 52.0791C140.58 52.4254 140.832 52.8397 141.008 53.3195C141.186 53.7992 141.274 54.3256 141.274 54.8986C141.274 55.4942 141.173 56.0294 140.975 56.5129C140.776 56.994 140.502 57.4045 140.158 57.742C139.811 58.0832 139.406 58.3426 138.943 58.5265C138.482 58.7116 137.987 58.8035 137.46 58.8035C136.909 58.8035 136.403 58.7141 135.936 58.5315C135.471 58.3527 135.068 58.0946 134.728 57.7533C134.391 57.4158 134.125 57.0053 133.934 56.5255C133.741 56.042 133.646 55.5005 133.646 54.8986C133.646 54.342 133.741 53.8244 133.927 53.3459C134.116 52.8686 134.378 52.4569 134.717 52.108C135.057 51.758 135.46 51.4847 135.926 51.2832C136.393 51.0817 136.902 50.9835 137.46 50.9835Z" fill="#0071CE"/>
<path d="M150.694 51.1296V58.655H149.556L145.313 53.2276V58.655H144.174V51.1296H145.268L149.556 56.6376V51.1296H150.694Z" fill="#0071CE"/>
</svg>
