<svg width="23" height="23" viewBox="0 0 23 23" fill="none" xmlns="http://www.w3.org/2000/svg">
<path d="M18.6875 0C19.8754 0 20.8912 0.421767 21.7347 1.2653C22.5782 2.10883 23 3.12457 23 4.3125V18.6875C23 19.8754 22.5782 20.8912 21.7347 21.7347C20.8912 22.5782 19.8754 23 18.6875 23H15.8724V14.0905H18.8522L19.3014 10.6165H15.8724V8.40039C15.8724 7.84136 15.9897 7.42209 16.2243 7.14258C16.4589 6.86306 16.9156 6.72331 17.5944 6.72331L19.4212 6.70833V3.60872C18.7923 3.51888 17.9039 3.47396 16.7559 3.47396C15.3982 3.47396 14.3126 3.87326 13.499 4.67187C12.6854 5.47049 12.2786 6.59852 12.2786 8.05599V10.6165H9.28385V14.0905H12.2786V23H4.3125C3.12457 23 2.10883 22.5782 1.2653 21.7347C0.421767 20.8912 0 19.8754 0 18.6875V4.3125C0 3.12457 0.421767 2.10883 1.2653 1.2653C2.10883 0.421767 3.12457 0 4.3125 0H18.6875Z" fill="white"/>
</svg>
