<svg width="22" height="25" viewBox="0 0 22 25" fill="none" xmlns="http://www.w3.org/2000/svg">
<g clip-path="url(#clip0_55_116)">
<path d="M13.5464 17.3549V20.2985C13.5464 20.9217 13.365 21.2333 13.0023 21.2333C12.7884 21.2333 12.5791 21.131 12.3745 20.9263V16.7271C12.5791 16.5225 12.7884 16.4202 13.0023 16.4202C13.365 16.4202 13.5464 16.7318 13.5464 17.3549ZM18.2618 17.3689V18.0106H17.0062V17.3689C17.0062 16.7364 17.2154 16.4202 17.634 16.4202C18.0525 16.4202 18.2618 16.7364 18.2618 17.3689ZM4.78519 14.3276H6.27794V13.0162H1.92526V14.3276H3.3901V22.2656H4.78519V14.3276ZM8.80305 22.2656H10.0447V15.3739H8.80305V20.6473C8.52403 21.0379 8.25896 21.2333 8.00785 21.2333C7.84044 21.2333 7.74278 21.1356 7.71488 20.9403C7.70558 20.9124 7.70093 20.7496 7.70093 20.452V15.3739H6.4593V20.8287C6.4593 21.2844 6.4965 21.6239 6.57091 21.8471C6.68251 22.1912 6.95223 22.3633 7.38006 22.3633C7.82649 22.3633 8.30082 22.0796 8.80305 21.5123V22.2656ZM14.788 20.2009V17.4526C14.788 16.7736 14.7461 16.3132 14.6624 16.0714C14.5043 15.5506 14.1741 15.2902 13.6719 15.2902C13.2069 15.2902 12.7744 15.5413 12.3745 16.0435V13.0162H11.1328V22.2656H12.3745V21.596C12.793 22.1075 13.2255 22.3633 13.6719 22.3633C14.1741 22.3633 14.5043 22.1075 14.6624 21.596C14.7461 21.3449 14.788 20.8798 14.788 20.2009ZM19.5034 20.0614V19.88H18.2339C18.2339 20.3544 18.2246 20.638 18.2059 20.731C18.1408 21.0658 17.9548 21.2333 17.6479 21.2333C17.2201 21.2333 17.0062 20.9124 17.0062 20.2706V19.0569H19.5034V17.62C19.5034 16.8852 19.3778 16.3458 19.1267 16.0017C18.764 15.5273 18.2711 15.2902 17.6479 15.2902C17.0155 15.2902 16.5179 15.5273 16.1552 16.0017C15.8948 16.3458 15.7645 16.8852 15.7645 17.62V20.0335C15.7645 20.7682 15.8994 21.3077 16.1691 21.6518C16.5318 22.1261 17.0341 22.3633 17.6758 22.3633C18.3455 22.3633 18.8477 22.1168 19.1825 21.6239C19.3499 21.3728 19.4476 21.1217 19.4755 20.8705C19.4941 20.7868 19.5034 20.5171 19.5034 20.0614ZM11.0212 7.32422V4.39453C11.0212 3.75279 10.8213 3.43192 10.4214 3.43192C10.0214 3.43192 9.82146 3.75279 9.82146 4.39453V7.32422C9.82146 7.97526 10.0214 8.30078 10.4214 8.30078C10.8213 8.30078 11.0212 7.97526 11.0212 7.32422ZM21.0519 17.8013C21.0519 19.9777 20.931 21.6053 20.6892 22.6842C20.559 23.2329 20.2893 23.6933 19.8801 24.0653C19.4708 24.4373 18.9965 24.6512 18.4571 24.707C16.7458 24.9023 14.1648 25 10.7143 25C7.2638 25 4.68288 24.9023 2.97158 24.707C2.43214 24.6512 1.95549 24.4373 1.54161 24.0653C1.12773 23.6933 0.86034 23.2329 0.739432 22.6842C0.497617 21.6425 0.376709 20.0149 0.376709 17.8013C0.376709 15.625 0.497617 13.9974 0.739432 12.9185C0.869641 12.3698 1.13936 11.9094 1.54858 11.5374C1.95781 11.1654 2.43679 10.9468 2.98553 10.8817C4.68753 10.6957 7.2638 10.6027 10.7143 10.6027C14.1648 10.6027 16.7458 10.6957 18.4571 10.8817C18.9965 10.9468 19.4732 11.1654 19.887 11.5374C20.3009 11.9094 20.5683 12.3698 20.6892 12.9185C20.931 13.9602 21.0519 15.5878 21.0519 17.8013ZM7.12894 0H8.55193L6.86387 5.56641V9.3471H5.46878V5.56641C5.33858 4.87816 5.05491 3.8923 4.61778 2.60882C4.27366 1.65086 3.97139 0.78125 3.71097 0H5.18977L6.18028 3.66908L7.12894 0ZM12.2908 4.64565V7.08705C12.2908 7.8404 12.1606 8.38914 11.9001 8.73326C11.5467 9.20759 11.0538 9.44475 10.4214 9.44475C9.79821 9.44475 9.30993 9.20759 8.95651 8.73326C8.69609 8.37984 8.56588 7.8311 8.56588 7.08705V4.64565C8.56588 3.9016 8.69609 3.35751 8.95651 3.01339C9.30993 2.53906 9.79821 2.3019 10.4214 2.3019C11.0538 2.3019 11.5467 2.53906 11.9001 3.01339C12.1606 3.35751 12.2908 3.9016 12.2908 4.64565ZM16.9643 2.3856V9.3471H15.6948V8.5798C15.2019 9.15644 14.7229 9.44475 14.2578 9.44475C13.83 9.44475 13.5557 9.27269 13.4347 8.92857C13.3603 8.70536 13.3231 8.35658 13.3231 7.88225V2.3856H14.5927V7.50558C14.5927 7.8125 14.5973 7.97526 14.6066 7.99386C14.6345 8.19847 14.7322 8.30078 14.8996 8.30078C15.1507 8.30078 15.4158 8.10082 15.6948 7.70089V2.3856H16.9643Z" fill="white"/>
</g>
<defs>
<clipPath id="clip0_55_116">
<rect width="21.4286" height="25" fill="white"/>
</clipPath>
</defs>
</svg>
