<svg width="25" height="25" viewBox="0 0 25 25" fill="none" xmlns="http://www.w3.org/2000/svg">
<path fill-rule="evenodd" clip-rule="evenodd" d="M1.04175 2.95633C1.04175 2.44855 1.24346 1.96157 1.60252 1.60252C1.96157 1.24346 2.44855 1.04175 2.95633 1.04175H22.0417C22.2934 1.04134 22.5426 1.09057 22.7752 1.18661C23.0078 1.28266 23.2192 1.42364 23.3972 1.60148C23.5752 1.77932 23.7165 1.99053 23.8128 2.22301C23.9091 2.4555 23.9586 2.70469 23.9584 2.95633V22.0417C23.9587 22.2934 23.9093 22.5427 23.8132 22.7753C23.717 23.0079 23.5759 23.2193 23.398 23.3973C23.2201 23.5753 23.0088 23.7165 22.7763 23.8128C22.5437 23.9091 22.2945 23.9586 22.0428 23.9584H2.95633C2.70482 23.9584 2.45577 23.9089 2.22341 23.8126C1.99106 23.7163 1.77995 23.5752 1.60215 23.3973C1.42435 23.2194 1.28334 23.0082 1.18719 22.7758C1.09103 22.5434 1.04161 22.2943 1.04175 22.0428V2.95633ZM10.1126 9.77925H13.2157V11.3376C13.6636 10.4418 14.8095 9.6355 16.5313 9.6355C19.8324 9.6355 20.6147 11.4199 20.6147 14.6938V20.7584H17.274V15.4397C17.274 13.5751 16.8261 12.523 15.6886 12.523C14.1105 12.523 13.4542 13.6574 13.4542 15.4397V20.7584H10.1126V9.77925ZM4.38342 20.6157H7.72508V9.6355H4.38342V20.6147V20.6157ZM8.20321 6.05425C8.20951 6.34037 8.15859 6.62486 8.05346 6.89104C7.94832 7.15721 7.79107 7.3997 7.59095 7.60428C7.39082 7.80886 7.15185 7.97141 6.88806 8.08238C6.62426 8.19335 6.34096 8.25052 6.05477 8.25052C5.76858 8.25052 5.48528 8.19335 5.22148 8.08238C4.95769 7.97141 4.71872 7.80886 4.51859 7.60428C4.31847 7.3997 4.16122 7.15721 4.05608 6.89104C3.95094 6.62486 3.90003 6.34037 3.90633 6.05425C3.9187 5.49264 4.15048 4.9582 4.55205 4.56538C4.95361 4.17256 5.49302 3.9526 6.05477 3.9526C6.61652 3.9526 7.15593 4.17256 7.55749 4.56538C7.95906 4.9582 8.19084 5.49264 8.20321 6.05425V6.05425Z" fill="white"/>
</svg>
