<svg width="29" height="25" viewBox="0 0 29 25" fill="none" xmlns="http://www.w3.org/2000/svg">
<path fill-rule="evenodd" clip-rule="evenodd" d="M0 2.05C0 1.50631 0.215981 0.984881 0.600431 0.600431C0.984881 0.215982 1.50631 0 2.05 0H26.65C27.1937 0 27.7151 0.215982 28.0996 0.600431C28.484 0.984881 28.7 1.50631 28.7 2.05C28.7 2.59369 28.484 3.11512 28.0996 3.49957C27.7151 3.88402 27.1937 4.1 26.65 4.1H2.05C1.50631 4.1 0.984881 3.88402 0.600431 3.49957C0.215981 3.11512 0 2.59369 0 2.05ZM0 12.3C0 11.7563 0.215981 11.2349 0.600431 10.8504C0.984881 10.466 1.50631 10.25 2.05 10.25H26.65C27.1937 10.25 27.7151 10.466 28.0996 10.8504C28.484 11.2349 28.7 11.7563 28.7 12.3C28.7 12.8437 28.484 13.3651 28.0996 13.7496C27.7151 14.134 27.1937 14.35 26.65 14.35H2.05C1.50631 14.35 0.984881 14.134 0.600431 13.7496C0.215981 13.3651 0 12.8437 0 12.3ZM0 22.55C0 22.0063 0.215981 21.4849 0.600431 21.1004C0.984881 20.716 1.50631 20.5 2.05 20.5H26.65C27.1937 20.5 27.7151 20.716 28.0996 21.1004C28.484 21.4849 28.7 22.0063 28.7 22.55C28.7 23.0937 28.484 23.6151 28.0996 23.9996C27.7151 24.384 27.1937 24.6 26.65 24.6H2.05C1.50631 24.6 0.984881 24.384 0.600431 23.9996C0.215981 23.6151 0 23.0937 0 22.55Z" fill="black"/>
</svg>
