<svg width="17" height="18" viewBox="0 0 17 18" fill="none" xmlns="http://www.w3.org/2000/svg">
<path d="M12.7098 12.0371C12.3232 11.6504 11.6964 11.6504 11.3098 12.0371C10.9231 12.4237 10.9231 13.0505 11.3098 13.4371L12.7098 12.0371ZM15.2697 17.397C15.6563 17.7836 16.2831 17.7836 16.6697 17.397C17.0563 17.0104 17.0563 16.3836 16.6697 15.997L15.2697 17.397ZM11.3098 13.4371L15.2697 17.397L16.6697 15.997L12.7098 12.0371L11.3098 13.4371ZM12.5498 7.99717C12.5498 10.9132 10.1859 13.2771 7.26987 13.2771V15.257C11.2794 15.257 14.5297 12.0067 14.5297 7.99717H12.5498ZM7.26987 13.2771C4.35387 13.2771 1.98998 10.9132 1.98998 7.99717H0.01002C0.01002 12.0067 3.26037 15.257 7.26987 15.257V13.2771ZM1.98998 7.99717C1.98998 5.08116 4.35387 2.71727 7.26987 2.71727V0.737315C3.26037 0.737315 0.01002 3.98766 0.01002 7.99717H1.98998ZM7.26987 2.71727C10.1859 2.71727 12.5498 5.08116 12.5498 7.99717H14.5297C14.5297 3.98766 11.2794 0.737315 7.26987 0.737315V2.71727Z" fill="#828282"/>
</svg>
