<svg width="26" height="26" viewBox="0 0 26 26" fill="none" xmlns="http://www.w3.org/2000/svg">
<path d="M13 0C9.55219 0 6.24559 1.36964 3.80761 3.80761C1.36964 6.24558 7.15256e-07 9.55219 7.15256e-07 13C7.15256e-07 16.4478 1.36964 19.7544 3.80761 22.1924C6.24559 24.6304 9.55219 26 13 26C16.4478 26 19.7544 24.6304 22.1924 22.1924C24.6304 19.7544 26 16.4478 26 13C26 9.55219 24.6304 6.24558 22.1924 3.80761C19.7544 1.36964 16.4478 0 13 0V0ZM13 5.57143C13.2358 5.57123 13.469 5.6202 13.6848 5.71523C13.9006 5.81025 14.0942 5.94924 14.2532 6.12331C14.4123 6.29738 14.5333 6.5027 14.6085 6.72617C14.6837 6.94964 14.7114 7.18634 14.69 7.42114L14.0121 14.8609C13.9859 15.111 13.8679 15.3425 13.681 15.5108C13.4941 15.6791 13.2515 15.7722 13 15.7722C12.7485 15.7722 12.5059 15.6791 12.319 15.5108C12.1321 15.3425 12.0141 15.111 11.9879 14.8609L11.3119 7.42114C11.2904 7.18649 11.3182 6.94995 11.3933 6.72661C11.4683 6.50327 11.5892 6.29804 11.748 6.124C11.9068 5.94996 12.1002 5.81093 12.3158 5.71579C12.5313 5.62065 12.7644 5.57149 13 5.57143V5.57143ZM13 20.4286C12.606 20.4286 12.2281 20.272 11.9494 19.9934C11.6708 19.7148 11.5143 19.3369 11.5143 18.9429C11.5143 18.5488 11.6708 18.1709 11.9494 17.8923C12.2281 17.6137 12.606 17.4571 13 17.4571C13.394 17.4571 13.7719 17.6137 14.0506 17.8923C14.3292 18.1709 14.4857 18.5488 14.4857 18.9429C14.4857 19.3369 14.3292 19.7148 14.0506 19.9934C13.7719 20.272 13.394 20.4286 13 20.4286V20.4286Z" fill="#0071CE"/>
</svg>
